<?xml version="1.0" encoding="utf-8"?>
<!-- Generator: Adobe Illustrator 15.0.2, SVG Export Plug-In . SVG Version: 6.00 Build 0)  -->
<!DOCTYPE svg PUBLIC "-//W3C//DTD SVG 1.1//EN" "http://www.w3.org/Graphics/SVG/1.1/DTD/svg11.dtd">
<svg version="1.1" id="Layer_1" xmlns="http://www.w3.org/2000/svg" xmlns:xlink="http://www.w3.org/1999/xlink" x="0px" y="0px"
	 width="212px" height="100px" viewBox="0 0 212 100" enable-background="new 0 0 212 100" xml:space="preserve">
<g>
	<g>
		<path fill="#B3A66F" d="M55.514,42.518h10.373v3.619H51.715v-6.031c0-14.352,10.191-14.412,10.191-24.965v-4.583
			c0-2.11-0.784-3.799-3.196-3.799c-2.472,0-3.196,1.628-3.196,3.799v4.824h-3.799v-4.824c0-4.221,1.508-7.236,6.995-7.236
			s6.995,3.015,6.995,7.236v4.522c0,12.423-10.191,12.302-10.191,24.845V42.518z"/>
		<path fill="#B3A66F" d="M87.955,10.738v28.645c0,4.342-1.568,7.356-7.115,7.356c-5.549,0-7.116-3.015-7.116-7.356V10.738
			c0-4.342,1.567-7.417,7.116-7.417C86.387,3.321,87.955,6.396,87.955,10.738z M84.156,39.383V10.738
			c0-2.291-0.724-3.979-3.316-3.979c-2.594,0-3.317,1.688-3.317,3.979v28.645c0,2.291,0.724,3.979,3.317,3.979
			C83.433,43.362,84.156,41.674,84.156,39.383z"/>
		<path fill="#B3A66F" d="M121.178,42.518h3.679v3.619H113.7v-3.619h3.679v-31.96h-3.799V7.965c3.377,0,4.522-1.688,4.522-4.041
			h3.075V42.518z"/>
		<path fill="#B3A66F" d="M137.277,23.101h2.051c2.412,0,3.075-1.447,3.075-3.558v-9.046c0-1.749-0.905-3.738-3.136-3.738
			c-2.352,0-3.076,1.567-3.076,3.738v4.885h-3.678v-4.885c0-4.221,1.447-7.176,6.754-7.176c5.367,0,6.874,2.955,6.874,7.176v8.684
			c0,2.774-0.904,4.704-3.196,5.608c2.412,0.844,3.438,2.834,3.438,5.608v8.985c0,4.342-1.508,7.356-7.055,7.356
			c-5.549,0-6.936-3.075-6.936-7.356v-5.307h3.739v5.307c0,1.93,0.844,3.979,3.196,3.979c2.593,0,3.256-1.688,3.256-3.979v-9.106
			c0-1.869-0.965-3.678-3.256-3.678h-2.051V23.101z"/>
	</g>
</g>
<g>
	<g>
		<path fill="#B3A66F" d="M95.141,22.921v2.383h1.992l0.091-0.818h0.455v2.237h-0.455l-0.091-0.818h-1.992v2.637h2.765l0.091-0.819
			h0.455v1.419h-4.774v-0.455l0.818-0.091v-5.729l-0.818-0.091v-0.455h4.774v1.419h-0.455l-0.091-0.819H95.141z"/>
		<path fill="#B3A66F" d="M103.518,23.876h-0.455l-0.1-0.909c-0.392-0.109-0.773-0.155-1.228-0.155
			c-1.347,0-1.638,0.609-1.638,1.328c0,0.928,0.592,1.028,1.665,1.164c1.337,0.173,2.118,0.591,2.118,1.874
			c0,0.928-0.49,2.055-2.519,2.055c-0.628,0-1.482-0.173-1.91-0.364v-1.282h0.455l0.091,0.873c0.346,0.1,0.782,0.191,1.373,0.191
			c1.419,0,1.828-0.655,1.828-1.473c0-0.928-0.428-1.127-1.564-1.273c-1.609-0.2-2.183-0.664-2.183-1.773
			c0-0.792,0.382-1.901,2.292-1.901c0.837,0,1.4,0.146,1.773,0.318V23.876z"/>
		<path fill="#B3A66F" d="M109.657,22.321v1.419h-0.455l-0.091-0.819h-1.792v5.675l0.818,0.091v0.455h-2.282v-0.455l0.818-0.091
			v-5.675h-1.791l-0.092,0.819h-0.454v-1.419H109.657z"/>
	</g>
</g>
<g>
	<g>
		<path fill="#B3A66F" d="M25.137,97H1.88V63.262h23.257v7.446H10.473v5.613H23.36v7.16H10.473v6.071h14.664V97z"/>
		<path fill="#B3A66F" d="M40.892,63.262v26.291h12.602V97H32.299V63.262H40.892z"/>
		<path fill="#B3A66F" d="M64.149,85.887c0.631,3.037,3.036,5.213,6.072,5.213c2.234,0,3.952-0.859,3.952-2.807
			s-1.146-2.807-5.155-4.01c-8.592-2.635-11.342-5.842-11.342-11.398c0-7.848,6.129-10.368,12.259-10.368
			c7.16,0,12.487,2.291,13.231,8.706l-8.592,2.292c-0.286-2.749-2.406-3.838-4.468-3.838c-1.776,0-3.322,0.688-3.322,2.577
			c0,1.948,1.546,2.865,5.27,3.896c7.676,2.349,11.056,4.812,11.056,11.342c0,7.562-6.13,10.196-13.576,10.196
			c-6.587,0-11.228-2.062-13.175-8.076L64.149,85.887z"/>
		<path fill="#B3A66F" d="M112.014,97H88.757V63.262h23.257v7.446H97.35v5.613h12.888v7.16H97.35v6.071h14.664V97z"/>
		<path fill="#B3A66F" d="M127.769,63.262v26.291h12.602V97h-21.194V63.262H127.769z"/>
		<path fill="#B3A66F" d="M166.206,90.699h-12.43L151.657,97h-8.993l12.2-33.738h10.482L177.663,97h-9.223L166.206,90.699z
			 M156.182,83.539h7.504l-0.916-2.578c-2.005-5.613-2.692-9.852-2.692-9.852h-0.229c0,0-0.858,4.295-2.749,9.795L156.182,83.539z"
			/>
		<path fill="#B3A66F" d="M200.782,79.815c5.04,0.745,7.446,4.01,7.446,8.02c0,5.499-3.724,9.165-11.972,9.165h-14.722V63.262
			h14.836c6.816,0,10.426,3.207,10.426,8.477c0,4.182-2.349,6.875-6.015,7.848V79.815z M194.424,77.123
			c2.349,0,3.838-0.859,3.838-3.207c0-2.521-1.433-3.38-4.01-3.38h-4.124v6.587H194.424z M190.128,89.725h5.384
			c2.521,0,4.01-0.687,4.01-3.265c0-2.119-1.489-3.15-4.01-3.15h-5.384V89.725z"/>
	</g>
</g>
</svg>