<?xml version="1.0" standalone="no"?>
<!DOCTYPE svg PUBLIC "-//W3C//DTD SVG 1.1//EN" "http://www.w3.org/Graphics/SVG/1.1/DTD/svg11.dtd" >
<svg xmlns="http://www.w3.org/2000/svg">
<metadata></metadata>
<defs>
<font id="dapiferbold" horiz-adv-x="1781" >
<font-face units-per-em="2048" ascent="1655" descent="-393" />
<missing-glyph horiz-adv-x="436" />
<glyph unicode="&#xfb01;" horiz-adv-x="1304" d="M27 735v176h151v289q0 385 373 385q125 0 229 -55l-94 -184q-46 36 -98 36q-101 0 -101 -133v-338h650v-735h116v-176h-536v176h110v559h-340v-559h131v-176h-565v176h125v559h-151zM784 1241q0 72 55 124t130 52t128.5 -52t53.5 -124q0 -71 -53.5 -122.5t-128.5 -51.5 t-130 51.5t-55 122.5z" />
<glyph unicode="&#xfb02;" horiz-adv-x="1341" d="M27 735v176h151v289q0 193 90.5 284t278.5 91q106 0 225 -72l402 58v-1385h118v-176h-544v176h116v1190l-123 -53q-64 57 -127 57q-66 0 -96.5 -38t-30.5 -124v-297h183v-176h-183v-559h131v-176h-565v176h125v559h-151z" />
<glyph horiz-adv-x="0" />
<glyph horiz-adv-x="682" />
<glyph unicode=" "  horiz-adv-x="436" />
<glyph unicode="&#x09;" horiz-adv-x="436" />
<glyph unicode="&#xa0;" horiz-adv-x="436" />
<glyph unicode="!" horiz-adv-x="624" d="M70 1436h485l-176 -899h-131zM109 170q0 82 60 142.5t142 60.5q80 0 142.5 -62t62.5 -141t-62.5 -141t-142.5 -62q-79 0 -140.5 61.5t-61.5 141.5z" />
<glyph unicode="&#x22;" horiz-adv-x="993" d="M25 881l254 555h299q-79 -96 -238 -286t-225 -269h-90zM436 881l252 555h299q-75 -93 -232 -280t-229 -275h-90z" />
<glyph unicode="#" horiz-adv-x="1273" d="M37 0l207 399l-164 58v270l285 -96l120 233l-399 137v273l508 -176l141 276h154l-164 -321l170 -58l188 379h154l-219 -422l176 -59v-272l-295 102l-121 -234l410 -143v-270l-518 178l-129 -254h-156l154 299l-170 57l-176 -356h-156zM483 590l179 -62l116 236l-178 61z " />
<glyph unicode="$" horiz-adv-x="1091" d="M47 319h311q65 -165 211 -165q65 0 108.5 37.5t43.5 95.5q0 64 -56.5 98.5t-207.5 79.5q-79 22 -139.5 50t-117 72t-87.5 110t-31 151q0 142 107 252t274 133v203h190v-209q133 -25 231 -108.5t144 -217.5h-305q-25 69 -68 108.5t-116 39.5q-58 0 -101 -37.5t-43 -87.5 q0 -16 3.5 -29.5t13 -25.5t18.5 -21t27.5 -19t31.5 -16.5t38.5 -15.5t41.5 -14.5t48.5 -16t50.5 -16.5q61 -20 109 -40.5t100.5 -54t87 -72t57 -93.5t22.5 -119q0 -146 -113 -257t-278 -141v-219h-190v219q-143 23 -253.5 111.5t-162.5 234.5z" />
<glyph unicode="%" horiz-adv-x="1619" d="M74 1038q0 141 102 238.5t250 97.5q152 0 254 -93.5t102 -233.5q0 -141 -102 -237.5t-250 -96.5q-152 0 -254 93.5t-102 231.5zM121 0l1169 1374h209l-1169 -1374h-209zM291 1040q0 -87 36 -133.5t103 -46.5q62 0 98.5 50.5t36.5 136.5q0 87 -36 133.5t-103 46.5 q-62 0 -98.5 -50.5t-36.5 -136.5zM840 317q0 141 102 238.5t250 97.5q150 0 252 -94.5t102 -232.5q0 -141 -102 -237.5t-250 -96.5q-151 0 -252.5 93.5t-101.5 231.5zM1055 319q0 -87 36 -133.5t103 -46.5q62 0 99.5 50.5t37.5 136.5t-36.5 133t-102.5 47q-62 0 -99.5 -51 t-37.5 -136z" />
<glyph unicode="&#x26;" horiz-adv-x="1726" d="M49 438q0 159 117.5 286.5t316.5 154.5q-20 85 -20 145q0 195 133 322t334 127q177 0 283 -96.5t106 -252.5q0 -63 -27.5 -122t-81 -109.5t-142.5 -83.5t-202 -39q104 -200 293 -383q84 97 137 231h-118v185h491v-185h-156q-78 -192 -225 -344q175 -138 357 -217l-25 -73 q-243 -12 -504 143q-235 -160 -512 -160q-254 0 -404.5 128.5t-150.5 342.5zM395 487q0 -131 92 -219t232 -88q125 0 237 53q-132 104 -239 232.5t-172 259.5q-150 -64 -150 -238zM780 1090q0 -80 29 -175q112 6 176 66t64 152q0 65 -35 106t-94 41q-62 0 -101 -52t-39 -138 z" />
<glyph unicode="'" horiz-adv-x="583" d="M25 881l254 555h299q-79 -96 -238 -286t-225 -269h-90z" />
<glyph unicode="(" horiz-adv-x="786" d="M57 494q0 97 19.5 188t52 167.5t83.5 151t105 134.5t127 123t139 112.5t150 106.5v-254q-354 -354 -354 -731q0 -376 354 -730v-254q-84 57 -150.5 106.5t-139 113t-127 124t-105 135t-83 151t-52 168t-19.5 188.5z" />
<glyph unicode=")" horiz-adv-x="786" d="M53 -238q355 355 355 730q0 376 -355 731v254q84 -57 150 -106.5t139 -112.5t127 -123t105 -134.5t83.5 -151t52 -167.5t19.5 -188t-19.5 -188.5t-52 -168t-83 -151t-105 -135t-127 -124t-139 -113t-150.5 -106.5v254z" />
<glyph unicode="*" horiz-adv-x="937" d="M18 981l107 324l293 -238l-25 -68zM86 766l320 197l55 -41l-96 -363zM303 1438h350l-141 -344h-68zM498 922l55 41l319 -197l-278 -207zM541 1067l293 240l104 -324l-373 18z" />
<glyph unicode="+" horiz-adv-x="1105" d="M113 350v207h336v340h206v-340h338v-207h-338v-334h-206v334h-336z" />
<glyph unicode="," horiz-adv-x="475" d="M-27 -311q34 47 84.5 112.5t83 111t54.5 85.5q-60 43 -102 86t-42 68q0 38 48 99.5t106 61.5q66 0 143.5 -79.5t77.5 -172.5q0 -127 -293 -380z" />
<glyph unicode="-" horiz-adv-x="708" d="M63 338v207h582v-207h-582z" />
<glyph unicode="." horiz-adv-x="475" d="M66 137q0 67 52 119.5t120 52.5t120 -52.5t52 -119.5q0 -69 -51.5 -120.5t-120.5 -51.5q-68 0 -120 52.5t-52 119.5z" />
<glyph unicode="/" horiz-adv-x="1222" d="M0 -451l911 1887h312l-910 -1887h-313z" />
<glyph unicode="0" horiz-adv-x="1179" d="M68 461q0 227 150 372.5t376 145.5q147 0 265 -63.5t186.5 -180t68.5 -264.5q0 -224 -146 -366t-368 -142q-153 0 -274 61.5t-189.5 175.5t-68.5 261zM356 463q0 -129 63.5 -199.5t180.5 -70.5q102 0 163.5 74.5t61.5 201.5q0 131 -63 208t-170 77q-101 0 -168.5 -82.5 t-67.5 -208.5z" />
<glyph unicode="1" horiz-adv-x="917" d="M92 725v233h539v-782h188v-176h-686v176h189v549h-230z" />
<glyph unicode="2" horiz-adv-x="1136" d="M59 61q58 45 130 99t118.5 88.5t99 75t84.5 71t60 65t40.5 67.5t12.5 67q0 72 -43.5 116t-116.5 44q-69 0 -119 -48t-67 -139h-143q7 106 46 189t101 132.5t137 75t160 25.5q167 0 272 -86t105 -223q0 -54 -28 -106.5t-71.5 -95.5t-115 -90t-139.5 -84t-164 -83h418 l94 131h178l-234 -352h-800z" />
<glyph unicode="3" horiz-adv-x="1030" d="M59 -342q566 -16 566 264q0 66 -31 115t-88 79t-122 47.5t-148 26.5l118 156q118 55 175 113t57 133q0 66 -45 111t-117 45q-70 0 -125 -48t-72 -135h-141q8 107 46 188.5t97 131t131.5 74t155.5 24.5q170 0 287 -89.5t117 -227.5q0 -48 -21 -90t-54 -73t-81.5 -58 t-96 -45t-104.5 -35q178 -29 284.5 -133.5t106.5 -251.5q0 -214 -171.5 -331.5t-458.5 -117.5q-133 0 -265 23v104z" />
<glyph unicode="4" horiz-adv-x="1363" d="M39 -51l891 1040h92v-878h276v-209h-276v-371h-311v371h-672v47zM346 106h365v437z" />
<glyph unicode="5" horiz-adv-x="999" d="M68 -322q240 0 369.5 71.5t129.5 211.5q0 131 -129.5 215t-357.5 119l160 623l630 90v-283l-538 -53l-37 -160q289 -39 453.5 -171t154.5 -327q-9 -148 -98.5 -250t-240.5 -151t-355 -49q-67 0 -141 6v108z" />
<glyph unicode="6" horiz-adv-x="1169" d="M70 512q0 151 63.5 297t176 268.5t262.5 224t327 173.5h137l2 -9q-499 -375 -643 -733q104 119 293 119q175 0 298.5 -119.5t123.5 -306.5q0 -127 -62.5 -232.5t-182 -169t-273.5 -63.5q-152 0 -272 73.5t-185 199t-65 278.5zM371 422q0 -94 63.5 -160.5t157.5 -66.5 q95 0 158 66t63 163q0 99 -62.5 163t-158.5 64q-94 0 -157.5 -65t-63.5 -164z" />
<glyph unicode="7" horiz-adv-x="1136" d="M66 678v280h981l26 -57l-794 -1382h-123l530 1159h-620z" />
<glyph unicode="8" horiz-adv-x="1122" d="M82 338q0 113 90 200t225 126q-62 36 -106.5 69.5t-87 80t-64.5 106t-22 129.5q0 174 126 292.5t314 118.5q192 0 317 -104.5t125 -265.5q0 -100 -77 -183.5t-195 -124.5q68 -38 118.5 -74t100 -87t75.5 -115.5t26 -140.5q0 -174 -136.5 -291t-349.5 -117t-346 106.5 t-133 274.5zM360 373q0 -82 55 -135.5t136 -53.5q88 0 138 46.5t50 125.5q0 37 -15.5 69t-48 60.5t-65 50t-82.5 48.5q-168 -87 -168 -211zM399 1063q0 -59 44.5 -104t127.5 -91q71 33 111.5 81.5t40.5 105.5q0 72 -46.5 119t-115.5 47q-77 0 -119.5 -42t-42.5 -116z" />
<glyph unicode="9" horiz-adv-x="1173" d="M57 500q0 95 37 180t103.5 148.5t165 101t215.5 37.5q234 0 378 -151.5t144 -395.5q0 -149 -65.5 -287.5t-177 -246t-245 -189t-282.5 -135.5h-146v2q18 12 56 40t111 89.5t142 129.5t143 162.5t120 184.5q-110 -98 -258 -98q-188 0 -314.5 119.5t-126.5 308.5zM358 512 q0 -103 62 -168t158 -65q94 0 157.5 65.5t63.5 163.5q0 106 -62 174t-159 68q-95 0 -157.5 -67.5t-62.5 -170.5z" />
<glyph unicode=":" horiz-adv-x="475" d="M66 137q0 67 52 119.5t120 52.5t120 -52.5t52 -119.5q0 -69 -51.5 -120.5t-120.5 -51.5q-68 0 -120 52.5t-52 119.5zM66 741q0 67 52 118.5t120 51.5t120 -51.5t52 -118.5q0 -69 -51.5 -120.5t-120.5 -51.5q-68 0 -120 52.5t-52 119.5z" />
<glyph unicode=";" horiz-adv-x="475" d="M-27 -311q34 47 84.5 112.5t83 111t54.5 85.5q-60 43 -102 86t-42 68q0 38 48 99.5t106 61.5q66 0 143.5 -79.5t77.5 -172.5q0 -127 -293 -380zM66 741q0 67 52 118.5t120 51.5t120 -51.5t52 -118.5q0 -69 -51.5 -120.5t-120.5 -51.5q-68 0 -120 52.5t-52 119.5z" />
<glyph unicode="&#x3c;" horiz-adv-x="1105" d="M100 383v149l779 431l98 -199l-565 -307l563 -301l-98 -205z" />
<glyph unicode="=" horiz-adv-x="1105" d="M113 150v202h880v-202h-880zM113 559v203h880v-203h-880z" />
<glyph unicode="&#x3e;" horiz-adv-x="1105" d="M129 764l98 199l779 -431v-149l-775 -432l-100 203l565 301z" />
<glyph unicode="?" horiz-adv-x="868" d="M90 1286v148q71 6 133 6q151 0 268 -33t189 -91t108.5 -132.5t36.5 -161.5q0 -155 -97 -250t-302 -133l-33 -158h-151l-90 336q162 0 251 52t89 151q0 61 -33.5 109t-93 79t-127 49.5t-148.5 28.5zM166 137q0 67 52 119.5t120 52.5t120 -52.5t52 -119.5 q0 -69 -51.5 -120.5t-120.5 -51.5q-68 0 -120 52.5t-52 119.5z" />
<glyph unicode="@" horiz-adv-x="1710" d="M98 659q0 167 66 319t177.5 262.5t267 175.5t327.5 65q196 0 352 -75t243 -208.5t87 -300.5q0 -146 -58.5 -267.5t-168 -194.5t-248.5 -73q-103 0 -160.5 51.5t-60.5 137.5q-165 -180 -312 -180q-77 0 -127.5 51.5t-50.5 130.5q0 81 44 167t112 153t155.5 110t169.5 43 q98 0 142 -80l59 133l213 -55l-135 -279q-70 -143 -70 -200q0 -49 54 -49q122 0 205 114t83 281q0 201 -149 329t-385 128q-187 0 -344 -91.5t-247.5 -249t-90.5 -345.5q0 -259 158.5 -413.5t424.5 -154.5q275 0 535 168l66 -127q-158 -90 -295 -130t-306 -40 q-333 0 -533 189.5t-200 504.5zM666 596q0 -27 16.5 -42t42.5 -17q41 0 100.5 46t104.5 111q59 86 59 142q0 23 -16.5 38t-42.5 15q-45 2 -108.5 -49.5t-109.5 -122.5t-46 -121z" />
<glyph unicode="A" horiz-adv-x="1667" d="M47 0v176h137l490 1120l-53 144h358l485 -1264h154v-176h-703v176h168l-100 277h-489l-107 -277h188v-176h-528zM565 637h350l-170 463z" />
<glyph unicode="B" horiz-adv-x="1411" d="M74 0v176h159v1084h-159v176h647q530 0 530 -359q0 -231 -270 -305q358 -73 358 -371q0 -196 -152 -298.5t-444 -102.5h-669zM575 176h144q137 0 209.5 61.5t72.5 174.5q0 117 -76 180t-220 63h-130v-479zM575 819h87q262 0 262 230q0 99 -61 155t-181 56h-107v-441z" />
<glyph unicode="C" horiz-adv-x="1560" d="M80 719q0 218 103 389.5t288 266.5t420 95q265 0 444 -79l156 -338h-184q-58 113 -144 170t-231 57q-227 0 -357.5 -152.5t-130.5 -408.5q0 -254 137.5 -408.5t366.5 -154.5q296 0 385 256h187l-148 -342q-95 -51 -226.5 -78t-254.5 -27q-236 0 -420 93.5t-287.5 266 t-103.5 394.5z" />
<glyph unicode="D" horiz-adv-x="1697" d="M74 0v176h159v1084h-159v176h643q429 0 665 -188.5t236 -528.5q0 -332 -240 -525.5t-655 -193.5h-649zM588 176h112q261 0 406 143t145 398q0 266 -145.5 404.5t-423.5 138.5h-94v-1084z" />
<glyph unicode="E" horiz-adv-x="1357" d="M74 0v176h159v1084h-159v176h1114v-334h-178v158h-422v-426h274v139h178v-459h-178v139h-274v-477h479l76 195h207l-152 -371h-1124z" />
<glyph unicode="F" horiz-adv-x="1316" d="M74 0v176h159v1084h-159v176h1134v-371h-176v195h-444v-478h276v138h176v-457h-176v137h-276v-424h184v-176h-698z" />
<glyph unicode="G" horiz-adv-x="1662" d="M80 719q0 215 104.5 386t293 268t427.5 97q241 0 420 -79l150 -316h-179q-116 205 -370 205q-227 0 -354.5 -149t-127.5 -412q0 -251 133 -407t357 -156q111 0 199 37v323h-168v176h639v-176h-146v-160q1 -61 12.5 -94.5t38.5 -68.5v-9q-276 -219 -628 -219 q-238 0 -420 93.5t-281.5 265t-99.5 395.5z" />
<glyph unicode="H" horiz-adv-x="1734" d="M74 0v176h159v1084h-159v176h674v-176h-160v-431h559v431h-160v176h674v-176h-160v-1084h160v-176h-674v176h160v475h-559v-475h160v-176h-674z" />
<glyph unicode="I" horiz-adv-x="856" d="M86 0v176h166v1084h-166v176h684v-176h-166v-1084h166v-176h-684z" />
<glyph unicode="J" horiz-adv-x="811" d="M-180 -272q165 68 253 150t124 198.5t36 306.5v877h-172v176h691v-176h-164v-846q0 -174 -35 -298.5t-119.5 -222.5t-223 -164.5t-347.5 -113.5z" />
<glyph unicode="K" horiz-adv-x="1687" d="M74 0v176h159v1084h-159v176h676v-176h-162v-568q320 273 536 568h-172v176h641v-176h-202q-139 -189 -336 -379l454 -705h123v-176h-684v176h135l-288 467q-90 -77 -207 -168v-299h162v-176h-676z" />
<glyph unicode="L" horiz-adv-x="1296" d="M74 0v176h159v1084h-159v176h704v-176h-190v-1084h381l94 225h207l-164 -401h-1032z" />
<glyph unicode="M" horiz-adv-x="2019" d="M41 0v176h154l110 1084h-168v176h623l266 -754l274 754h594v-176h-159l90 -1084h155v-176h-663v176h153l-71 987l-430 -1093h-76l-418 1108l-88 -1002h158v-176h-504z" />
<glyph unicode="N" horiz-adv-x="1716" d="M74 0v176h172v1084h-172v176h538l676 -783v607h-172v176h537v-176h-172v-1264h-107l-936 1118v-938h172v-176h-536z" />
<glyph unicode="O" d="M80 719q0 161 63.5 301.5t173 238.5t260.5 154.5t320 56.5q225 0 408.5 -94.5t290 -266t106.5 -386.5q0 -162 -64.5 -303.5t-174 -241t-260 -156.5t-318.5 -57q-165 0 -313.5 57t-256.5 155.5t-171.5 239.5t-63.5 302zM444 719q0 -253 124 -407t321 -154q204 0 325 150.5 t121 408.5q0 257 -122.5 409t-321.5 152q-207 0 -327 -149t-120 -410z" />
<glyph unicode="P" horiz-adv-x="1404" d="M74 0v176h159v1084h-159v176h671q282 0 435 -111t153 -311q0 -215 -151.5 -327t-444.5 -112h-151v-399h182v-176h-694zM586 752h102q138 0 211.5 66.5t73.5 189.5q0 120 -68.5 186t-191.5 66h-127v-508z" />
<glyph unicode="Q" d="M80 719q0 161 63.5 301.5t173 238.5t260.5 154.5t320 56.5q225 0 408.5 -94.5t290 -266t106.5 -386.5q0 -250 -145 -438t-381 -265q151 -205 383 -278q116 -29 223 -29q28 0 90 4l10 -90q-173 -57 -328 -57q-485 4 -796 414q-144 19 -268.5 81.5t-215 157t-142.5 223 t-52 273.5zM444 719q0 -253 124 -407t321 -154q204 0 325 150.5t121 408.5q0 257 -122.5 409t-321.5 152q-207 0 -327 -149t-120 -410z" />
<glyph unicode="R" horiz-adv-x="1562" d="M104 0v176h160v1084h-160v176h672q293 0 445.5 -105t152.5 -299q0 -137 -76 -226t-213 -130q68 -219 192 -386t282 -237l-27 -82q-290 40 -486.5 204.5t-306.5 426.5h-123v-426h156v-176h-668zM616 770h111q285 0 285 244q0 118 -71 182t-206 64h-119v-490z" />
<glyph unicode="S" horiz-adv-x="1236" d="M51 457h195q52 -147 154.5 -228.5t211.5 -81.5q94 0 153.5 50.5t59.5 134.5q0 39 -15 70.5t-51.5 60.5t-69 48.5t-96.5 53.5q-21 11 -32 17q-158 84 -192 105q-147 92 -198 204q-32 72 -32 162q0 178 131 297.5t326 119.5q199 0 315 -110v96h154v-414h-170 q-59 248 -256 248q-77 0 -125.5 -44t-48.5 -118q0 -32 15 -61.5t34.5 -50.5t62.5 -47.5t73.5 -42.5t92.5 -47q157 -80 205 -112q161 -103 202 -239q15 -52 15 -112q0 -199 -146.5 -325t-371.5 -126q-105 0 -205 41.5t-163 104.5l16 -101h-160z" />
<glyph unicode="T" horiz-adv-x="1556" d="M37 1047l129 475h196l-24 -101h922v101h176v-475h-176v198h-322v-1069h160v-176h-674v176h160v1069h-297l-60 -198h-190z" />
<glyph unicode="U" horiz-adv-x="1734" d="M72 1260v176h671v-176h-159v-719q0 -204 67.5 -296.5t218.5 -92.5q153 0 218 89.5t65 299.5v719h-162v176h672v-176h-160v-652q0 -315 -164.5 -479t-480.5 -164q-319 0 -473 158t-154 481v656h-159z" />
<glyph unicode="V" horiz-adv-x="1636" d="M47 1260v176h705v-176h-168l334 -793l292 793h-180v176h557v-176h-174l-516 -1264h-152l-542 1264h-156z" />
<glyph unicode="W" horiz-adv-x="2361" d="M49 1260v176h678v-176h-143l358 -891l215 340l-297 551h-80v176h539v-176h-78l121 -230l145 230h-110v176h381v-176h-66l-262 -398l242 -456l309 854h-139v176h485v-176h-141l-504 -1260h-160l-297 549l-360 -549h-158l-524 1260h-154z" />
<glyph unicode="X" horiz-adv-x="1628" d="M45 0v176h156l424 543l-404 541h-139v176h747v-176h-190l258 -359l248 359h-146v176h543v-176h-156l-385 -490l447 -594h137v-176h-747v176h192l-301 416l-285 -416h144v-176h-543z" />
<glyph unicode="Y" horiz-adv-x="1564" d="M31 1260v176h723v-176h-172l288 -418l271 418h-148v176h537v-176h-152l-424 -572v-512h160v-176h-672v176h160v498l-432 586h-139z" />
<glyph unicode="Z" horiz-adv-x="1521" d="M78 0v61l831 1190h-557l-67 -227h-189l109 412h1190v-60l-832 -1192h594l98 248h201l-151 -432h-1227z" />
<glyph unicode="[" horiz-adv-x="831" d="M111 -451v1887h657v-176h-344v-1534h344v-177h-657z" />
<glyph unicode="\" horiz-adv-x="1222" d="M0 1436h313l910 -1887h-312z" />
<glyph unicode="]" horiz-adv-x="831" d="M63 -274h345v1534h-345v176h658v-1887h-658v177z" />
<glyph unicode="^" horiz-adv-x="1021" d="M201 379l284 313h50l286 -313l-67 -68l-244 162l-244 -162z" />
<glyph unicode="_" horiz-adv-x="1157" d="M63 -37h1031v-182h-1031v182z" />
<glyph unicode="`" horiz-adv-x="960" d="M139 1266l119 194l428 -321l-63 -95z" />
<glyph unicode="a" horiz-adv-x="1099" d="M45 201q0 55 17.5 99t52 75.5t74.5 55t96.5 43.5t106 34.5t115 34.5t111.5 37v41q0 69 -29 106t-83 37q-98 0 -133 -117h-310q156 301 467 301q197 0 297.5 -99.5t100.5 -295.5v-363q0 -38 28 -38q21 0 37 28h123q-106 -213 -287 -213q-85 0 -136.5 49t-57.5 136 q-69 -85 -148 -136t-182 -51q-109 0 -184.5 69t-75.5 167zM375 260q0 -35 23 -63.5t69 -28.5q96 0 151 96v189q-54 -21 -86 -35t-66 -32.5t-51.5 -35.5t-28.5 -40t-11 -50z" />
<glyph unicode="b" horiz-adv-x="1224" d="M14 1352v176l443 43v-766q96 141 297 141q179 0 300.5 -131.5t121.5 -322.5q0 -233 -141 -368.5t-392 -135.5l-496 12v1368zM457 207q30 -24 75 -38.5t86 -14.5q110 0 174 78.5t64 213.5q0 140 -59.5 218.5t-163.5 78.5q-66 0 -110.5 -30t-65.5 -70v-436z" />
<glyph unicode="c" horiz-adv-x="1013" d="M49 455q0 141 69.5 254.5t184.5 175t252 61.5q165 0 276.5 -81t141.5 -206h-291q-11 50 -43.5 86.5t-89.5 36.5q-87 0 -135.5 -70t-48.5 -190q0 -151 74.5 -244.5t197.5 -93.5q153 0 235 133h113q-20 -71 -55.5 -131.5t-88.5 -111.5t-130.5 -80t-171.5 -29 q-218 0 -354 137.5t-136 352.5z" />
<glyph unicode="d" horiz-adv-x="1236" d="M51 434q0 122 36.5 220.5t100 161t146.5 95.5t178 33q156 0 258 -102v547l-221 -21v182l530 23v-1362l127 41v-172l-426 -117v168q-97 -166 -305 -166q-178 0 -301 128t-123 341zM373 457q0 -140 62.5 -213.5t174.5 -73.5q94 0 160 76v411q-56 95 -172 95 q-103 0 -164 -80.5t-61 -214.5z" />
<glyph unicode="e" horiz-adv-x="1048" d="M49 459q0 134 66 246t179.5 176.5t248.5 64.5q212 0 332.5 -133.5t134.5 -351.5h-658q6 -134 87.5 -212.5t211.5 -78.5q163 0 244 133h115q-43 -156 -159.5 -247t-301.5 -91q-215 0 -357.5 139.5t-142.5 354.5zM354 596h344v66q0 63 -38 98t-107 35q-75 0 -132 -55 t-67 -144z" />
<glyph unicode="f" horiz-adv-x="702" d="M27 735v176h151v289q0 385 373 385q130 0 237 -63l-94 -185q-52 45 -106 45q-101 0 -101 -133v-338h187v-176h-187v-559h131v-176h-565v176h125v559h-151z" />
<glyph unicode="g" horiz-adv-x="1118" d="M37 131q0 77 48.5 137t131.5 86q-111 92 -111 246q0 74 25.5 135.5t67 102.5t96 69.5t110.5 41t113 12.5q111 0 207.5 -40.5t151.5 -117.5h204v-176h-145v-29q-3 -70 -28.5 -128.5t-66 -97.5t-92.5 -66.5t-106.5 -39.5t-110.5 -12q-107 0 -202 35q-43 -8 -68.5 -30.5 t-25.5 -53.5q0 -57 71 -62l455 -18q193 -6 275.5 -62.5t82.5 -177.5q0 -129 -82 -234t-224 -164.5t-314 -59.5q-453 0 -453 239q0 149 205 234q-90 25 -152.5 83t-62.5 148zM289 -276q0 -57 56 -89t157 -32q152 0 256 47t104 114q0 35 -22.5 49.5t-91.5 20.5l-353 31 q-50 -20 -78 -57.5t-28 -83.5zM383 588q0 -159 133 -172q7 -1 13 -1q58 0 100 49q47 54 47 159q0 166 -133 176h-7q-60 0 -106 -52q-47 -55 -47 -159z" />
<glyph unicode="h" horiz-adv-x="1249" d="M31 1354v176l444 43v-828q100 201 293 201q161 0 247.5 -100t86.5 -285v-385h112v-176h-507v176h86v385q0 82 -39 128t-111 46q-70 0 -116 -49.5t-52 -138.5v-371h100v-176h-522v176h113v1194z" />
<glyph unicode="i" horiz-adv-x="651" d="M39 729v178l440 37v-768h119v-176h-545v176h117v563zM129 1266q0 71 53.5 122.5t128.5 51.5t129 -51.5t54 -122.5q0 -72 -54 -124t-129 -52t-128.5 52t-53.5 124z" />
<glyph unicode="j" horiz-adv-x="616" d="M-123 -481q105 58 166 119.5t94 159t33 239.5v702l-133 -10v178l442 37v-909q0 -208 -105 -337.5t-294 -178.5h-203zM127 1266q0 71 53.5 122.5t128.5 51.5t130 -51.5t55 -122.5q0 -72 -55 -124t-130 -52t-128.5 52t-53.5 124z" />
<glyph unicode="k" horiz-adv-x="1220" d="M20 1360v168l445 43v-1116l285 280h-156v176h547v-176h-150l-184 -145l297 -414h84v-176h-529v176h89l-168 238l-115 -90v-148h100v-176h-522v176h113v1200z" />
<glyph unicode="l" horiz-adv-x="647" d="M20 1352v176l459 43v-1395h119v-176h-545v176h117v1192z" />
<glyph unicode="m" horiz-adv-x="1800" d="M39 733v176l434 35l-4 -205q95 207 285 207q219 0 276 -198q38 95 118 146.5t185 51.5q151 0 235.5 -94.5t84.5 -267.5v-408h112v-176h-503v176h81v402q0 83 -30.5 119t-95.5 36t-106.5 -45.5t-45.5 -124.5v-387h96v-176h-489v176h84v406q0 82 -32.5 116.5t-96.5 34.5 q-65 0 -105.5 -46.5t-46.5 -129.5v-381h96v-176h-518v176h113v563z" />
<glyph unicode="n" horiz-adv-x="1249" d="M39 733v176l434 35v-203q99 205 295 205q161 0 247.5 -99t86.5 -284v-387h112v-176h-507v176h86v387q0 82 -39 127t-111 45q-70 0 -116 -51.5t-52 -140.5v-367h100v-176h-522v176h113v563z" />
<glyph unicode="o" horiz-adv-x="1159" d="M49 457q0 212 153.5 350.5t385.5 138.5q225 0 373.5 -135.5t148.5 -343.5q0 -141 -68.5 -256.5t-188 -180.5t-265.5 -65q-230 0 -384.5 140.5t-154.5 351.5zM373 459q0 -161 55.5 -244.5t159.5 -83.5q95 0 147.5 85.5t52.5 244.5q0 315 -202 315q-104 0 -158.5 -79.5 t-54.5 -237.5z" />
<glyph unicode="p" horiz-adv-x="1241" d="M37 733v176l432 35v-149q44 70 119.5 110.5t179.5 40.5q178 0 301 -128t123 -341q0 -122 -36.5 -221t-100 -161.5t-146 -96t-176.5 -33.5q-155 0 -260 105v-379h121v-178h-543v178h113v1048zM473 254q27 -46 73.5 -70t102.5 -24q100 0 161.5 81t61.5 214q0 144 -60.5 216 t-174.5 72q-101 0 -164 -79v-410z" />
<glyph unicode="q" horiz-adv-x="1212" d="M51 434q0 122 36.5 220.5t100 161t146.5 95.5t178 33q89 0 160 -34.5t116 -88.5l25 123h268v-1253h142v-178h-607v178h154v424q-99 -150 -295 -150q-178 0 -301 128t-123 341zM373 457q0 -140 62.5 -213.5t174.5 -73.5q94 0 160 76v411q-56 95 -172 95q-103 0 -164 -80.5 t-61 -214.5z" />
<glyph unicode="r" horiz-adv-x="911" d="M39 733v176l432 35v-192q103 202 248 202q45 0 96.5 -27t95.5 -71l-133 -238q-105 84 -172 84q-57 0 -95 -43.5t-38 -126.5v-356h129v-176h-549v176h113v563z" />
<glyph unicode="s" horiz-adv-x="851" d="M18 252h203q19 -63 60 -102t106 -39q57 0 90 28t33 74q0 18 -8.5 34t-18.5 27t-33.5 24.5t-37 20t-45.5 21t-45 20.5q-55 25 -93.5 48t-78 58t-60 82.5t-20.5 106.5q0 54 22.5 105t65 93t111.5 67.5t155 25.5q183 0 303 -86l68 -188h-189q-15 61 -53.5 96t-89.5 35 q-44 0 -72.5 -26.5t-28.5 -65.5q0 -17 8 -32t18.5 -25.5t32 -23t36.5 -19.5t45 -20t45 -20q47 -23 76 -39t68 -44.5t61.5 -57t38.5 -71t16 -91.5q0 -54 -21.5 -105t-65.5 -96t-121.5 -72.5t-178.5 -27.5q-189 0 -328 88z" />
<glyph unicode="t" horiz-adv-x="739" d="M-12 735v29l415 385h39v-238h242v-176h-242v-557q15 -15 45.5 -26t61.5 -11q74 0 147 49v-143q-116 -82 -264 -82q-170 0 -299 115v655h-145z" />
<glyph unicode="u" horiz-adv-x="1239" d="M35 735v176h422v-571q0 -164 143 -164q69 0 113.5 48t50.5 134v377h-111v176h420v-700l129 41v-172l-430 -117l-4 180q-96 -178 -295 -178q-157 0 -241.5 100.5t-84.5 303.5v366h-112z" />
<glyph unicode="v" horiz-adv-x="1150" d="M16 735v176h549v-176h-110l204 -383l156 383h-110v176h432v-176h-123l-381 -735h-117l-385 735h-115z" />
<glyph unicode="w" horiz-adv-x="1708" d="M16 735v176h549v-176h-110l166 -344l143 344h-125v176h553v-176h-117l166 -362l141 362h-110v176h416v-176h-121l-355 -735h-116l-244 565l-250 -565h-115l-356 735h-115z" />
<glyph unicode="x" horiz-adv-x="1095" d="M18 0v176h78l285 279l-262 280h-82v176h530v-176h-98l149 -164l115 164h-86v176h412v-176h-88l-258 -250l286 -309h70v-176h-518v176h102l-176 195l-145 -195h88v-176h-402z" />
<glyph unicode="y" horiz-adv-x="1122" d="M16 735v176h531v-176h-113l207 -413l150 413h-107v176h424v-176h-107l-356 -735l-119 -309h105v-178h-494v178h144l192 346l-369 698h-88z" />
<glyph unicode="z" horiz-adv-x="1030" d="M53 0v55l494 688h-256l-33 -159h-186l51 327h829v-55l-493 -686h301l53 186h184l-65 -356h-879z" />
<glyph unicode="{" horiz-adv-x="770" d="M84 313l55 181l-55 180q81 -40 160 -90q31 19 47 30t35.5 34t19.5 46q0 24 -32.5 69t-72 90t-72 106t-32.5 112q0 54 30 105t83.5 91t111 73t130.5 61t122.5 44t104.5 32v-222q-38 -13 -85 -36.5t-97.5 -55t-84.5 -70.5t-34 -73q0 -24 27 -57.5t59 -63t59 -70t27 -77.5 q0 -112 -211 -258q211 -146 211 -261q0 -37 -27 -77.5t-59 -70t-59 -63t-27 -57.5q0 -35 34 -74t84 -70.5t98 -55t85 -35.5v-222q-53 15 -104 32t-122.5 45.5t-130 62t-112 74t-83.5 91t-30 103.5q0 42 21.5 89.5t52.5 88t61.5 77t52 69t21.5 53.5q0 51 -102 108 q-89 -57 -160 -88z" />
<glyph unicode="|" horiz-adv-x="460" d="M104 -451v1887h252v-1887h-252z" />
<glyph unicode="}" horiz-adv-x="770" d="M53 -270q37 12 84.5 35.5t97.5 55t83.5 70.5t33.5 74q0 24 -26.5 57.5t-58.5 63t-58.5 70t-26.5 77.5q0 116 209 261q-209 145 -209 258q0 37 26.5 77.5t58.5 70t58.5 63t26.5 57.5q0 34 -34 73t-84.5 70.5t-97 55t-83.5 36.5v222q46 -13 87 -26t102.5 -36t111.5 -47 t104 -57.5t90.5 -68.5t60.5 -79.5t24 -91.5q0 -51 -32.5 -112t-72 -106t-72 -90t-32.5 -69q0 -23 19.5 -46t35.5 -34t47 -30q79 50 160 90l-53 -180l53 -181q-71 31 -160 88q-102 -57 -102 -108q0 -21 21.5 -53.5t52 -69t61.5 -77t52.5 -88t21.5 -89.5q0 -53 -30 -103.5 t-83.5 -91t-111.5 -74t-130 -62t-122 -45.5t-103 -32v222z" />
<glyph unicode="~" horiz-adv-x="739" d="M63 197v223l613 373v-285z" />
<glyph unicode="&#xa1;" horiz-adv-x="624" d="M106 0l130 958h149l129 -958h-408zM139 1298q0 69 51 120.5t119 51.5q67 0 119.5 -52t52.5 -120t-52.5 -120t-119.5 -52t-118.5 52t-51.5 120z" />
<glyph unicode="&#xa2;" horiz-adv-x="1017" d="M49 457q0 182 113 313t287 166v219h198v-215q127 -21 212 -94t112 -176h-293q-3 15 -10 31t-21.5 36t-41 32.5t-60.5 12.5q-85 0 -132.5 -70t-47.5 -186q0 -156 73 -248t199 -92q151 0 231 125h113q-34 -124 -117 -215.5t-217 -120.5v-221h-198v217q-183 29 -291.5 161.5 t-108.5 324.5z" />
<glyph unicode="&#xa3;" horiz-adv-x="1347" d="M78 608v170h252l43 142q82 283 207 414.5t315 131.5q324 0 410 -362h-156q-71 123 -186 123q-97 0 -152.5 -66t-103.5 -231l-48 -152h363v-170h-416l-98 -309q117 47 246 47q175 0 325 -87t232 -243l-49 -53q-96 71 -228 113.5t-268 42.5q-237 0 -412 -125h-262l187 614 h-201z" />
<glyph unicode="&#xa5;" horiz-adv-x="1349" d="M51 1243v178h637v-178h-131l203 -325l178 325h-119v178h479v-178h-143l-266 -379h330v-168h-381v-170h381v-166h-381v-184h159v-176h-641v176h160v184h-385v166h385v170h-385v168h330l-264 379h-146z" />
<glyph unicode="&#xa7;" horiz-adv-x="1409" d="M117 532q0 125 73 205.5t209 106.5q-114 90 -114 248q0 152 120 258t324 106q164 0 291.5 -107t153.5 -276h-179q-53 93 -124 136.5t-144 43.5q-71 0 -110 -34.5t-39 -92.5q0 -39 32 -71t84.5 -54t119.5 -46.5t137.5 -46.5t137.5 -56.5t119.5 -74.5t84.5 -101.5 t32 -136.5q0 -134 -75 -219t-220 -113q127 -81 127 -234q0 -163 -130.5 -275t-350.5 -112q-95 0 -175.5 28.5t-134.5 72t-96 104t-65 117t-37 117.5h164q90 -132 173 -184t183 -52q77 0 128.5 39t51.5 104q0 37 -32.5 68t-85 53.5t-120 48t-138 49.5t-138 60.5t-120 78 t-85 104t-32.5 138.5zM401 596q0 -30 18.5 -59t42.5 -49t64.5 -41.5t68 -33.5t69.5 -28q165 -63 223 -63q69 0 112 38.5t43 98.5q0 31 -17.5 60t-40.5 49t-63 41t-67.5 32.5t-71.5 28.5q-90 32 -139 45.5t-90 13.5q-64 0 -108 -37.5t-44 -95.5z" />
<glyph unicode="&#xa8;" horiz-adv-x="962" d="M123 1212q0 57 42.5 100.5t98.5 43.5t99 -43.5t43 -100.5q0 -55 -43 -98t-99 -43t-98.5 42.5t-42.5 98.5zM557 1212q0 57 42.5 100.5t98.5 43.5q57 0 100.5 -43.5t43.5 -100.5q0 -56 -43.5 -98.5t-100.5 -42.5q-56 0 -98.5 42.5t-42.5 98.5z" />
<glyph unicode="&#xa9;" horiz-adv-x="1712" d="M80 715q0 158 62 302t166 248t248 166t302 62t302 -62t248 -166t166 -248t62 -302t-62 -302t-166 -248t-248 -166t-302 -62t-302 62t-248 166t-166 248t-62 302zM197 715q0 -181 88 -335t240.5 -244.5t332.5 -90.5q135 0 258 53.5t211 143.5t140.5 214t52.5 259 t-52.5 259t-140.5 213.5t-211 143t-258 53.5t-257.5 -53.5t-211 -143t-140.5 -213.5t-52 -259zM395 700q0 199 137.5 326t354.5 127q153 0 260 -47l98 -215h-104q-37 66 -90.5 101.5t-139.5 35.5q-136 0 -212 -88.5t-76 -239.5q0 -149 77 -238t211 -89q171 0 236 149h108 l-92 -213q-113 -61 -286 -61q-215 0 -348.5 126t-133.5 326z" />
<glyph unicode="&#xaa;" horiz-adv-x="782" d="M43 930q0 48 25.5 82t70.5 54.5t90.5 33.5t103.5 28t91 29v55q0 40 -18 61t-50 21q-67 0 -90 -69h-196q49 95 124 145.5t191 50.5q137 0 201.5 -69t64.5 -211v-238q7 -22 19 -22q15 0 18 16h86q-33 -64 -77 -99.5t-119 -35.5q-59 0 -96 27.5t-46 76.5q-96 -104 -217 -104 q-72 0 -124 49.5t-52 118.5zM264 958q0 -28 23 -45.5t51 -17.5q46 0 86 51v141q-12 -6 -38.5 -19.5t-38.5 -20t-31.5 -18.5t-28.5 -21.5t-16 -22.5t-7 -27z" />
<glyph unicode="&#xab;" horiz-adv-x="1239" d="M106 412v59l414 350l111 -112l-240 -269l240 -266l-111 -113zM567 412v59l414 350l111 -112l-240 -269l240 -266l-111 -113z" />
<glyph unicode="&#xad;" horiz-adv-x="708" d="M63 338v207h582v-207h-582z" />
<glyph unicode="&#xae;" horiz-adv-x="1712" d="M80 715q0 158 62 302t166 248t248 166t302 62t302 -62t248 -166t166 -248t62 -302t-62 -302t-166 -248t-248 -166t-302 -62t-302 62t-248 166t-166 248t-62 302zM197 715q0 -181 88 -335t240.5 -244.5t332.5 -90.5q135 0 258 53.5t211 143.5t140.5 214t52.5 259 t-52.5 259t-140.5 213.5t-211 143t-258 53.5t-257.5 -53.5t-211 -143t-140.5 -213.5t-52 -259zM457 274v115h94v633h-94v115h409q179 0 271 -59.5t92 -176.5q0 -171 -172 -227q41 -132 110 -222t144 -120l-23 -58q-312 11 -448 359h-68v-244h90v-115h-405zM772 741h41 q98 0 143 36.5t45 111.5q0 133 -153 133h-76v-281z" />
<glyph unicode="&#xaf;" horiz-adv-x="1024" d="M229 1124v172h566v-172h-566z" />
<glyph unicode="&#xb0;" horiz-adv-x="882" d="M90 1094q0 148 102 251t250 103q147 0 250 -102.5t103 -251.5q0 -145 -103.5 -249t-249.5 -104q-147 0 -249.5 103t-102.5 250zM231 1096q0 -95 58.5 -155t152.5 -60q92 0 150.5 60.5t58.5 154.5q0 96 -58 156.5t-151 60.5q-92 0 -151.5 -61t-59.5 -156z" />
<glyph unicode="&#xb4;" horiz-adv-x="960" d="M274 1139l428 321l121 -194l-485 -222z" />
<glyph unicode="&#xb6;" horiz-adv-x="1181" d="M74 1049q0 178 125.5 282.5t384.5 104.5h536v-176h-196v-1618h-197v1036h-125q-278 0 -403 96t-125 275z" />
<glyph unicode="&#xb7;" horiz-adv-x="475" d="M66 457q0 67 52 119.5t120 52.5t120 -52.5t52 -119.5q0 -68 -51.5 -119t-120.5 -51q-68 0 -120 51.5t-52 118.5z" />
<glyph unicode="&#xb8;" horiz-adv-x="1024" d="M248 -195h119q17 -52 54.5 -79t82.5 -27q29 0 47 13t18 38q0 19 -15.5 38.5t-34.5 38t-38 64t-24 109.5h94q3 -31 27.5 -55t57 -41t65 -37t55 -54.5t22.5 -82.5q0 -66 -69.5 -110t-171.5 -44q-107 0 -187 59.5t-102 169.5z" />
<glyph unicode="&#xba;" horiz-adv-x="792" d="M41 1092q0 142 102.5 235.5t257.5 93.5q151 0 251 -92t100 -231q0 -146 -100 -242t-251 -96q-154 0 -257 95.5t-103 236.5zM281 1092q0 -93 31.5 -144t88.5 -51q50 0 81.5 54t31.5 145q0 188 -115 188q-57 0 -87.5 -49t-30.5 -143z" />
<glyph unicode="&#xbb;" horiz-adv-x="1239" d="M147 174l242 266l-242 269l113 112l414 -350v-59l-414 -351zM608 174l242 266l-242 269l113 112l414 -350v-59l-414 -351z" />
<glyph unicode="&#xbc;" horiz-adv-x="1544" d="M51 0l1231 1374h209l-1231 -1374h-209zM53 1186v186h346v-569h103v-127h-428v127h104v428zM842 137v88q103 127 156 190.5t125 143.5t139 143h124v-438h101v-127h-101v-153h-219v153h-325zM985 260h182v232z" />
<glyph unicode="&#xbd;" horiz-adv-x="1503" d="M41 0l1231 1374h209l-1231 -1374h-209zM53 1186v186h346v-569h103v-127h-428v127h104v428zM881 31q6 7 19 21q65 72 96 107t75.5 89t64 86.5t35.5 70t17 68.5q0 44 -23 68t-59 24q-81 0 -100 -123h-111q4 122 81 198.5t193 76.5q107 0 174.5 -57t67.5 -140q0 -29 -9 -56 t-32 -57t-45 -53.5t-66.5 -59t-76 -59.5t-92.5 -69h342v-166h-541z" />
<glyph unicode="&#xbe;" horiz-adv-x="1599" d="M16 1145q17 117 95 182.5t194 65.5q107 0 173.5 -45.5t66.5 -118.5q0 -92 -187 -162q90 -22 143.5 -69t53.5 -119q0 -94 -104.5 -157t-264.5 -63q-59 0 -139 13l-4 69q16 -2 47 -2q117 0 178.5 37t53.5 92q-3 27 -24 47.5t-53.5 32.5t-64 18t-65.5 9l73 90q66 27 97.5 56 t31.5 67q0 31 -21 51.5t-54 20.5q-49 0 -78.5 -31t-40.5 -84h-107zM96 0l1231 1374h209l-1231 -1374h-209zM897 137v88q103 127 156 190.5t125 143.5t139 143h125v-438h100v-127h-100v-153h-219v153h-326zM1040 260h183v232z" />
<glyph unicode="&#xbf;" horiz-adv-x="858" d="M39 416q0 155 96.5 249t302.5 132l33 159h152l94 -335q-163 0 -253.5 -53t-90.5 -152q0 -61 33.5 -109t93 -79t128 -49.5t150.5 -28.5v-148q-70 -6 -135 -6q-151 0 -269 33t-190 91.5t-108.5 133t-36.5 162.5zM354 1298q0 69 51.5 120.5t120.5 51.5q68 0 120 -52t52 -120 t-52 -120t-120 -52t-120 52t-52 120z" />
<glyph unicode="&#xc0;" horiz-adv-x="1667" d="M47 0v176h137l490 1120l-53 144h358l485 -1264h154v-176h-703v176h168l-100 277h-489l-107 -277h188v-176h-528zM465 1790l119 195l428 -322l-64 -94zM565 637h350l-170 463z" />
<glyph unicode="&#xc1;" horiz-adv-x="1667" d="M47 0v176h137l490 1120l-53 144h358l485 -1264h154v-176h-703v176h168l-100 277h-489l-107 -277h188v-176h-528zM565 637h350l-170 463zM692 1663l428 322l121 -195l-485 -221z" />
<glyph unicode="&#xc2;" horiz-adv-x="1667" d="M47 0v176h137l490 1120l-53 144h358l485 -1264h154v-176h-703v176h168l-100 277h-489l-107 -277h188v-176h-528zM526 1632l285 318h49l287 -318l-68 -67l-243 161l-244 -161zM565 637h350l-170 463z" />
<glyph unicode="&#xc3;" horiz-adv-x="1667" d="M47 0v176h137l490 1120l-53 144h358l485 -1264h154v-176h-703v176h168l-100 277h-489l-107 -277h188v-176h-528zM473 1659q35 137 83.5 189.5t137.5 52.5q45 0 102 -29.5t105.5 -58.5t73.5 -29q14 0 25.5 6.5t18 13t13.5 24.5t9.5 27t9.5 35l151 -43q-36 -137 -85 -189 t-138 -52q-44 0 -101 29t-106 58t-74 29q-35 0 -55 -22t-33 -68zM565 637h350l-170 463z" />
<glyph unicode="&#xc4;" horiz-adv-x="1667" d="M47 0v176h137l490 1120l-53 144h358l485 -1264h154v-176h-703v176h168l-100 277h-489l-107 -277h188v-176h-528zM477 1737q0 57 42.5 100t98.5 43t99 -43t43 -100q0 -55 -43 -98.5t-99 -43.5q-55 0 -98 43t-43 99zM565 637h350l-170 463zM911 1737q0 57 43 100t99 43 q57 0 100 -43t43 -100q0 -56 -43 -99t-100 -43q-55 0 -98.5 43.5t-43.5 98.5z" />
<glyph unicode="&#xc5;" horiz-adv-x="1667" d="M47 0v176h137l527 1210q-70 63 -70 156q0 87 63.5 148t151.5 61q89 0 153 -61t64 -148q0 -94 -74 -158l465 -1208h154v-176h-703v176h168l-102 277h-487l-107 -277h188v-176h-528zM565 637h348l-168 461zM748 1542q0 -46 32 -79t76 -33t76.5 33t32.5 79t-32.5 79.5 t-76.5 33.5t-76 -33.5t-32 -79.5z" />
<glyph unicode="&#xc6;" horiz-adv-x="2045" d="M49 0v176h144l626 1084h-219v176h1327v-334h-176v158h-424v-426h277v139h176v-459h-176v139h-277v-477h434l78 195h205l-152 -371h-1077v176h160v279h-404l-145 -279h152v-176h-529zM666 639h309v594z" />
<glyph unicode="&#xc7;" horiz-adv-x="1560" d="M80 719q0 218 103 389.5t288 266.5t420 95q265 0 444 -79l156 -338h-184q-58 113 -144 170t-231 57q-227 0 -357.5 -152.5t-130.5 -408.5q0 -254 137.5 -408.5t366.5 -154.5q296 0 385 256h187l-148 -342q-95 -51 -226.5 -78t-254.5 -27h-4q12 -21 40 -39.5t57 -34 t57 -35t45.5 -51.5t17.5 -75q0 -66 -70 -110t-172 -44q-107 0 -187 59.5t-102 169.5h119q17 -52 54.5 -79t82.5 -27q29 0 47.5 13t18.5 38q0 18 -14 36t-32 34.5t-36.5 56t-26.5 92.5q-317 32 -511.5 236t-194.5 514z" />
<glyph unicode="&#xc8;" horiz-adv-x="1357" d="M74 0v176h159v1084h-159v176h1114v-334h-178v158h-422v-426h274v139h178v-459h-178v139h-274v-477h479l76 195h207l-152 -371h-1124zM336 1790l119 195l428 -322l-64 -94z" />
<glyph unicode="&#xc9;" horiz-adv-x="1357" d="M74 0v176h159v1084h-159v176h1114v-334h-178v158h-422v-426h274v139h178v-459h-178v139h-274v-477h479l76 195h207l-152 -371h-1124zM487 1663l428 322l121 -195l-485 -221z" />
<glyph unicode="&#xca;" horiz-adv-x="1357" d="M74 0v176h159v1084h-159v176h1114v-334h-178v158h-422v-426h274v139h178v-459h-178v139h-274v-477h479l76 195h207l-152 -371h-1124zM367 1632l284 318h49l287 -318l-67 -67l-244 161l-244 -161z" />
<glyph unicode="&#xcb;" horiz-adv-x="1357" d="M74 0v176h159v1084h-159v176h1114v-334h-178v158h-422v-426h274v139h178v-459h-178v139h-274v-477h479l76 195h207l-152 -371h-1124zM317 1737q0 57 43 100t99 43t98.5 -43t42.5 -100q0 -56 -43 -99t-98 -43t-98.5 43.5t-43.5 98.5zM752 1737q0 57 42.5 100t98.5 43 q57 0 100 -43t43 -100q0 -56 -43 -99t-100 -43q-55 0 -98 43t-43 99z" />
<glyph unicode="&#xcc;" horiz-adv-x="856" d="M51 1790l119 195l428 -322l-63 -94zM86 0v176h166v1084h-166v176h684v-176h-166v-1084h166v-176h-684z" />
<glyph unicode="&#xcd;" horiz-adv-x="856" d="M86 0v176h166v1084h-166v176h684v-176h-166v-1084h166v-176h-684zM258 1663l428 322l121 -195l-485 -221z" />
<glyph unicode="&#xce;" horiz-adv-x="856" d="M86 0v176h166v1084h-166v176h684v-176h-166v-1084h166v-176h-684zM119 1632l284 318h50l286 -318l-67 -67l-244 161l-244 -161z" />
<glyph unicode="&#xcf;" horiz-adv-x="856" d="M63 1737q0 57 43 100t99 43t98.5 -43t42.5 -100q0 -56 -43 -99t-98 -43t-98.5 43.5t-43.5 98.5zM86 0v176h166v1084h-166v176h684v-176h-166v-1084h166v-176h-684zM498 1737q0 57 42.5 100t98.5 43q57 0 100 -43t43 -100q0 -56 -43 -99t-100 -43q-55 0 -98 43t-43 99z " />
<glyph unicode="&#xd0;" horiz-adv-x="1691" d="M72 641v174h161v445h-159v176h680q420 0 642 -185t222 -530q0 -344 -227.5 -532.5t-628.5 -188.5h-688v176h159v465h-161zM588 176h149q244 0 379 138t135 405q0 541 -534 541h-129v-445h264v-174h-264v-465z" />
<glyph unicode="&#xd1;" horiz-adv-x="1716" d="M74 0v176h172v1084h-172v176h538l676 -783v607h-172v176h537v-176h-172v-1264h-107l-936 1118v-938h172v-176h-536zM496 1659q35 137 83.5 189.5t137.5 52.5q45 0 102 -29.5t105 -58.5t73 -29q14 0 25.5 6.5t18 13t13.5 24.5t9.5 27t9.5 35l152 -43q-36 -137 -85.5 -189 t-138.5 -52q-44 0 -101 29t-105.5 58t-73.5 29q-35 0 -55 -22t-33 -68z" />
<glyph unicode="&#xd2;" d="M80 719q0 161 63.5 301.5t173 238.5t260.5 154.5t320 56.5q225 0 408.5 -94.5t290 -266t106.5 -386.5q0 -162 -64.5 -303.5t-174 -241t-260 -156.5t-318.5 -57q-165 0 -313.5 57t-256.5 155.5t-171.5 239.5t-63.5 302zM444 719q0 -253 124 -407t321 -154q204 0 325 150.5 t121 408.5q0 257 -122.5 409t-321.5 152q-207 0 -327 -149t-120 -410zM504 1790l119 195l428 -322l-64 -94z" />
<glyph unicode="&#xd3;" d="M80 719q0 161 63.5 301.5t173 238.5t260.5 154.5t320 56.5q225 0 408.5 -94.5t290 -266t106.5 -386.5q0 -162 -64.5 -303.5t-174 -241t-260 -156.5t-318.5 -57q-165 0 -313.5 57t-256.5 155.5t-171.5 239.5t-63.5 302zM444 719q0 -253 124 -407t321 -154q204 0 325 150.5 t121 408.5q0 257 -122.5 409t-321.5 152q-207 0 -327 -149t-120 -410zM748 1663l428 322l120 -195l-485 -221z" />
<glyph unicode="&#xd4;" d="M80 719q0 161 63.5 301.5t173 238.5t260.5 154.5t320 56.5q225 0 408.5 -94.5t290 -266t106.5 -386.5q0 -162 -64.5 -303.5t-174 -241t-260 -156.5t-318.5 -57q-165 0 -313.5 57t-256.5 155.5t-171.5 239.5t-63.5 302zM444 719q0 -253 124 -407t321 -154q204 0 325 150.5 t121 408.5q0 257 -122.5 409t-321.5 152q-207 0 -327 -149t-120 -410zM580 1632l284 318h49l287 -318l-67 -67l-244 161l-244 -161z" />
<glyph unicode="&#xd5;" d="M80 719q0 161 63.5 301.5t173 238.5t260.5 154.5t320 56.5q225 0 408.5 -94.5t290 -266t106.5 -386.5q0 -162 -64.5 -303.5t-174 -241t-260 -156.5t-318.5 -57q-165 0 -313.5 57t-256.5 155.5t-171.5 239.5t-63.5 302zM444 719q0 -253 124 -407t321 -154q204 0 325 150.5 t121 408.5q0 257 -122.5 409t-321.5 152q-207 0 -327 -149t-120 -410zM528 1659q35 137 84 189.5t138 52.5q45 0 102 -29.5t105 -58.5t73 -29q14 0 25.5 6.5t18 13t13.5 24.5t9.5 27t9.5 35l151 -43q-36 -137 -85 -189t-138 -52q-44 0 -101 29t-105.5 58t-73.5 29 q-35 0 -55 -22t-33 -68z" />
<glyph unicode="&#xd6;" d="M80 719q0 161 63.5 301.5t173 238.5t260.5 154.5t320 56.5q225 0 408.5 -94.5t290 -266t106.5 -386.5q0 -162 -64.5 -303.5t-174 -241t-260 -156.5t-318.5 -57q-165 0 -313.5 57t-256.5 155.5t-171.5 239.5t-63.5 302zM444 719q0 -253 124 -407t321 -154q204 0 325 150.5 t121 408.5q0 257 -122.5 409t-321.5 152q-207 0 -327 -149t-120 -410zM532 1737q0 57 43 100t99 43t98.5 -43t42.5 -100q0 -56 -43 -99t-98 -43q-56 0 -99 43.5t-43 98.5zM967 1737q0 57 42.5 100t98.5 43q57 0 100 -43t43 -100q0 -56 -43 -99t-100 -43q-55 0 -98 43t-43 99 z" />
<glyph unicode="&#xd7;" horiz-adv-x="1107" d="M82 778l147 146l324 -324l328 328l145 -148l-326 -325l326 -328l-147 -145l-326 325l-324 -323l-145 147l324 324z" />
<glyph unicode="&#xd8;" d="M80 0l201 211q-201 211 -201 508q0 161 63.5 301.5t173 238.5t260.5 154.5t320 56.5q261 0 461 -124l86 90h260l-199 -209q197 -207 197 -504q0 -162 -64.5 -303.5t-174 -241t-260 -156.5t-318.5 -57q-257 0 -457 127l-88 -92h-260zM444 719q0 -155 52 -281l686 721 q-116 119 -291 119q-207 0 -327 -149t-120 -410zM602 274q113 -116 287 -116q204 0 325 150.5t121 408.5q0 161 -49 280z" />
<glyph unicode="&#xd9;" horiz-adv-x="1734" d="M72 1260v176h671v-176h-159v-719q0 -204 67.5 -296.5t218.5 -92.5q153 0 218 89.5t65 299.5v719h-162v176h672v-176h-160v-652q0 -315 -164.5 -479t-480.5 -164q-319 0 -473 158t-154 481v656h-159zM528 1790l119 195l428 -322l-63 -94z" />
<glyph unicode="&#xda;" horiz-adv-x="1734" d="M72 1260v176h671v-176h-159v-719q0 -204 67.5 -296.5t218.5 -92.5q153 0 218 89.5t65 299.5v719h-162v176h672v-176h-160v-652q0 -315 -164.5 -479t-480.5 -164q-319 0 -473 158t-154 481v656h-159zM664 1663l428 322l120 -195l-485 -221z" />
<glyph unicode="&#xdb;" horiz-adv-x="1734" d="M72 1260v176h671v-176h-159v-719q0 -204 67.5 -296.5t218.5 -92.5q153 0 218 89.5t65 299.5v719h-162v176h672v-176h-160v-652q0 -315 -164.5 -479t-480.5 -164q-319 0 -473 158t-154 481v656h-159zM559 1632l285 318h49l287 -318l-68 -67l-244 161l-243 -161z" />
<glyph unicode="&#xdc;" horiz-adv-x="1734" d="M72 1260v176h671v-176h-159v-719q0 -204 67.5 -296.5t218.5 -92.5q153 0 218 89.5t65 299.5v719h-162v176h672v-176h-160v-652q0 -315 -164.5 -479t-480.5 -164q-319 0 -473 158t-154 481v656h-159zM510 1737q0 57 42.5 100t98.5 43t99 -43t43 -100q0 -55 -43.5 -98.5 t-98.5 -43.5t-98 43t-43 99zM944 1737q0 57 42.5 100t98.5 43q57 0 100.5 -43t43.5 -100q0 -56 -43.5 -99t-100.5 -43q-55 0 -98 43t-43 99z" />
<glyph unicode="&#xdd;" horiz-adv-x="1564" d="M31 1260v176h723v-176h-172l288 -418l271 418h-148v176h537v-176h-152l-424 -572v-512h160v-176h-672v176h160v498l-432 586h-139zM604 1663l428 322l121 -195l-485 -221z" />
<glyph unicode="&#xde;" horiz-adv-x="1345" d="M74 0v176h159v1084h-159v176h698v-176h-186v-130h143q555 0 555 -395t-577 -395h-121v-164h186v-176h-698zM586 516h100q137 0 210 56.5t73 164.5q0 103 -68.5 159t-195.5 56h-119v-436z" />
<glyph unicode="&#xdf;" horiz-adv-x="1374" d="M41 735v176h145v97q0 253 122.5 374t373.5 121q200 0 323 -89t123 -243q0 -64 -25.5 -114.5t-61.5 -81.5t-72.5 -56t-62 -49.5t-25.5 -50.5q0 -25 24.5 -50t63.5 -49.5t86 -51.5t94 -62t86 -75.5t63.5 -98t24.5 -123.5q0 -142 -108.5 -242t-268.5 -100q-101 0 -170 23 t-131 65l-55 191h196q10 -61 44.5 -97t95.5 -36q48 0 79 29.5t31 76.5q0 38 -28.5 78t-71 74.5t-92 76.5t-92 81.5t-71 91.5t-28.5 106q0 63 20 113.5t48.5 84.5t57.5 64.5t49 68t20 81.5q0 83 -45.5 133.5t-122.5 50.5q-86 0 -136 -56t-50 -171v-1096h-433v176h125v559 h-145z" />
<glyph unicode="&#xe0;" horiz-adv-x="1099" d="M45 201q0 55 17.5 99t52 75.5t74.5 55t96.5 43.5t106 34.5t115 34.5t111.5 37v41q0 69 -29 106t-83 37q-98 0 -133 -117h-310q156 301 467 301q197 0 297.5 -99.5t100.5 -295.5v-363q0 -38 28 -38q21 0 37 28h123q-106 -213 -287 -213q-85 0 -136.5 49t-57.5 136 q-69 -85 -148 -136t-182 -51q-109 0 -184.5 69t-75.5 167zM174 1266l119 194l428 -321l-64 -95zM375 260q0 -35 23 -63.5t69 -28.5q96 0 151 96v189q-54 -21 -86 -35t-66 -32.5t-51.5 -35.5t-28.5 -40t-11 -50z" />
<glyph unicode="&#xe1;" horiz-adv-x="1099" d="M45 201q0 55 17.5 99t52 75.5t74.5 55t96.5 43.5t106 34.5t115 34.5t111.5 37v41q0 69 -29 106t-83 37q-98 0 -133 -117h-310q156 301 467 301q197 0 297.5 -99.5t100.5 -295.5v-363q0 -38 28 -38q21 0 37 28h123q-106 -213 -287 -213q-85 0 -136.5 49t-57.5 136 q-69 -85 -148 -136t-182 -51q-109 0 -184.5 69t-75.5 167zM340 1139l428 321l121 -194l-486 -222zM375 260q0 -35 23 -63.5t69 -28.5q96 0 151 96v189q-54 -21 -86 -35t-66 -32.5t-51.5 -35.5t-28.5 -40t-11 -50z" />
<glyph unicode="&#xe2;" horiz-adv-x="1099" d="M45 201q0 55 17.5 99t52 75.5t74.5 55t96.5 43.5t106 34.5t115 34.5t111.5 37v41q0 69 -29 106t-83 37q-98 0 -133 -117h-310q156 301 467 301q197 0 297.5 -99.5t100.5 -295.5v-363q0 -38 28 -38q21 0 37 28h123q-106 -213 -287 -213q-85 0 -136.5 49t-57.5 136 q-69 -85 -148 -136t-182 -51q-109 0 -184.5 69t-75.5 167zM236 1108l284 317h49l287 -317l-68 -68l-243 162l-244 -162zM375 260q0 -35 23 -63.5t69 -28.5q96 0 151 96v189q-54 -21 -86 -35t-66 -32.5t-51.5 -35.5t-28.5 -40t-11 -50z" />
<glyph unicode="&#xe3;" horiz-adv-x="1099" d="M45 201q0 55 17.5 99t52 75.5t74.5 55t96.5 43.5t106 34.5t115 34.5t111.5 37v41q0 69 -29 106t-83 37q-98 0 -133 -117h-310q156 301 467 301q197 0 297.5 -99.5t100.5 -295.5v-363q0 -38 28 -38q21 0 37 28h123q-106 -213 -287 -213q-85 0 -136.5 49t-57.5 136 q-69 -85 -148 -136t-182 -51q-109 0 -184.5 69t-75.5 167zM182 1135q35 137 83.5 189t137.5 52q45 0 102 -29t105.5 -58t73.5 -29q14 0 25.5 6.5t18 13t13.5 24.5t9.5 27t9.5 35l151 -43q-36 -137 -85.5 -189.5t-137.5 -52.5q-44 0 -101 29.5t-105.5 58.5t-73.5 29 q-36 0 -56 -22t-33 -68zM375 260q0 -35 23 -63.5t69 -28.5q96 0 151 96v189q-54 -21 -86 -35t-66 -32.5t-51.5 -35.5t-28.5 -40t-11 -50z" />
<glyph unicode="&#xe4;" horiz-adv-x="1099" d="M45 201q0 55 17.5 99t52 75.5t74.5 55t96.5 43.5t106 34.5t115 34.5t111.5 37v41q0 69 -29 106t-83 37q-98 0 -133 -117h-310q156 301 467 301q197 0 297.5 -99.5t100.5 -295.5v-363q0 -38 28 -38q21 0 37 28h123q-106 -213 -287 -213q-85 0 -136.5 49t-57.5 136 q-69 -85 -148 -136t-182 -51q-109 0 -184.5 69t-75.5 167zM186 1212q0 57 43 100.5t99 43.5t98.5 -43.5t42.5 -100.5q0 -56 -42.5 -98.5t-98.5 -42.5t-99 43t-43 98zM375 260q0 -35 23 -63.5t69 -28.5q96 0 151 96v189q-54 -21 -86 -35t-66 -32.5t-51.5 -35.5t-28.5 -40 t-11 -50zM621 1212q0 57 42.5 100.5t98.5 43.5q57 0 100 -43.5t43 -100.5q0 -56 -43 -98.5t-100 -42.5q-56 0 -98.5 42.5t-42.5 98.5z" />
<glyph unicode="&#xe5;" horiz-adv-x="1099" d="M45 201q0 55 17.5 99t52 75.5t74.5 55t96.5 43.5t106 34.5t115 34.5t111.5 37v41q0 69 -29 106t-83 37q-98 0 -133 -117h-310q156 301 467 301q197 0 297.5 -99.5t100.5 -295.5v-363q0 -38 28 -38q21 0 37 28h123q-106 -213 -287 -213q-85 0 -136.5 49t-57.5 136 q-69 -85 -148 -136t-182 -51q-109 0 -184.5 69t-75.5 167zM322 1282q0 87 63.5 148t151.5 61q89 0 153 -61t64 -148t-64.5 -149t-152.5 -62t-151.5 62t-63.5 149zM375 260q0 -35 23 -63.5t69 -28.5q96 0 151 96v189q-54 -21 -86 -35t-66 -32.5t-51.5 -35.5t-28.5 -40 t-11 -50zM428 1282q0 -46 32.5 -79.5t76.5 -33.5t76 33.5t32 79.5t-32 79.5t-76 33.5t-76.5 -33.5t-32.5 -79.5z" />
<glyph unicode="&#xe6;" horiz-adv-x="1576" d="M45 190q0 61 26 109.5t65.5 79t100 58.5t114.5 44.5t126.5 40t118.5 43.5v56q0 71 -20.5 107t-69.5 36q-98 0 -133 -117h-310q74 143 184.5 221t276.5 78t252 -108q130 108 305 108q209 0 327 -130t132 -345h-647v-4q0 -142 79.5 -219.5t213.5 -77.5q95 0 148 37.5 t93 107.5h113q-19 -70 -54 -129.5t-89 -110.5t-134.5 -80.5t-179.5 -29.5q-129 0 -233 54.5t-166 152.5q-153 -207 -373 -207q-111 0 -188.5 64.5t-77.5 160.5zM354 254q0 -46 26 -72t73 -26q49 0 95.5 36t82.5 91q-27 89 -27 178q-28 -17 -74 -42t-71 -40t-52.5 -35.5 t-40 -42.5t-12.5 -47zM895 606h340v64q0 64 -38.5 98.5t-106.5 34.5q-75 0 -130 -54t-65 -143z" />
<glyph unicode="&#xe7;" horiz-adv-x="1013" d="M49 455q0 141 69.5 254.5t184.5 175t252 61.5q165 0 276.5 -81t141.5 -206h-291q-11 50 -43.5 86.5t-89.5 36.5q-87 0 -135.5 -70t-48.5 -190q0 -151 74.5 -244.5t197.5 -93.5q153 0 235 133h113q-41 -147 -147 -246t-279 -106q12 -21 40 -39.5t57 -34t57 -35t45.5 -51.5 t17.5 -75q0 -66 -69.5 -110t-171.5 -44q-107 0 -187 59.5t-102 169.5h119q17 -52 54.5 -79t82.5 -27q29 0 47 13t18 38q0 15 -9 28.5t-22.5 28t-28.5 33t-28.5 53t-19.5 78.5q-186 25 -298 157.5t-112 326.5z" />
<glyph unicode="&#xe8;" horiz-adv-x="1048" d="M49 459q0 134 66 246t179.5 176.5t248.5 64.5q212 0 332.5 -133.5t134.5 -351.5h-658q6 -134 87.5 -212.5t211.5 -78.5q163 0 244 133h115q-43 -156 -159.5 -247t-301.5 -91q-215 0 -357.5 139.5t-142.5 354.5zM174 1266l119 194l428 -321l-64 -95zM354 596h344v66 q0 63 -38 98t-107 35q-75 0 -132 -55t-67 -144z" />
<glyph unicode="&#xe9;" horiz-adv-x="1048" d="M49 459q0 134 66 246t179.5 176.5t248.5 64.5q212 0 332.5 -133.5t134.5 -351.5h-658q6 -134 87.5 -212.5t211.5 -78.5q163 0 244 133h115q-43 -156 -159.5 -247t-301.5 -91q-215 0 -357.5 139.5t-142.5 354.5zM354 596h344v66q0 63 -38 98t-107 35q-75 0 -132 -55 t-67 -144zM354 1139l428 321l121 -194l-485 -222z" />
<glyph unicode="&#xea;" horiz-adv-x="1048" d="M49 459q0 134 66 246t179.5 176.5t248.5 64.5q212 0 332.5 -133.5t134.5 -351.5h-658q6 -134 87.5 -212.5t211.5 -78.5q163 0 244 133h115q-43 -156 -159.5 -247t-301.5 -91q-215 0 -357.5 139.5t-142.5 354.5zM227 1108l285 317h49l287 -317l-68 -68l-243 162l-244 -162 zM354 596h344v66q0 63 -38 98t-107 35q-75 0 -132 -55t-67 -144z" />
<glyph unicode="&#xeb;" horiz-adv-x="1048" d="M49 459q0 134 66 246t179.5 176.5t248.5 64.5q212 0 332.5 -133.5t134.5 -351.5h-658q6 -134 87.5 -212.5t211.5 -78.5q163 0 244 133h115q-43 -156 -159.5 -247t-301.5 -91q-215 0 -357.5 139.5t-142.5 354.5zM180 1212q0 57 43 100.5t99 43.5t98.5 -43.5t42.5 -100.5 q0 -56 -42.5 -98.5t-98.5 -42.5t-99 43t-43 98zM354 596h344v66q0 63 -38 98t-107 35q-75 0 -132 -55t-67 -144zM614 1212q0 57 43 100.5t99 43.5q57 0 100 -43.5t43 -100.5q0 -56 -43 -98.5t-100 -42.5q-56 0 -99 43t-43 98z" />
<glyph unicode="&#xec;" horiz-adv-x="651" d="M-18 1249l118 195l428 -322l-63 -94zM39 729v178l440 37v-768h119v-176h-545v176h117v563z" />
<glyph unicode="&#xed;" horiz-adv-x="651" d="M39 729v178l440 37v-768h119v-176h-545v176h117v563zM117 1122l428 322l121 -195l-486 -221z" />
<glyph unicode="&#xee;" horiz-adv-x="651" d="M4 1108l285 317h49l287 -317l-68 -68l-244 162l-243 -162zM39 729v178l440 37v-768h119v-176h-545v176h117v563z" />
<glyph unicode="&#xef;" horiz-adv-x="651" d="M-37 1196q0 57 42.5 100t98.5 43t99 -43t43 -100q0 -55 -43 -98t-99 -43t-98.5 42.5t-42.5 98.5zM39 729v178l440 37v-768h119v-176h-545v176h117v563zM397 1196q0 57 43 100t99 43q57 0 100 -43t43 -100q0 -56 -43 -98.5t-100 -42.5q-56 0 -99 43t-43 98z" />
<glyph unicode="&#xf0;" horiz-adv-x="1126" d="M41 457q0 216 125 350.5t332 134.5q127 0 219 -63q-77 133 -197 266l-323 -113v152l211 73q-127 112 -222 170l2 9h222q94 -51 182 -115l336 117v-154l-203 -70q163 -148 261.5 -325.5t98.5 -364.5q0 -131 -40.5 -238t-112 -176.5t-167.5 -107t-208 -37.5 q-228 0 -372 139t-144 353zM373 459q0 -293 198 -293q85 0 136 76.5t51 222.5q0 151 -46 215.5t-143 64.5q-196 0 -196 -286z" />
<glyph unicode="&#xf1;" horiz-adv-x="1249" d="M39 733v176l434 35v-203q99 205 295 205q161 0 247.5 -99t86.5 -284v-387h112v-176h-507v176h86v387q0 82 -39 127t-111 45q-70 0 -116 -51.5t-52 -140.5v-367h100v-176h-522v176h113v563zM254 1135q35 137 83.5 189t137.5 52q45 0 102 -29t105.5 -58t73.5 -29 q22 0 36.5 14t21.5 33t15 50q0 2 0.5 3t1 3t0.5 3l152 -43q-36 -137 -85.5 -189.5t-137.5 -52.5q-44 0 -101 29.5t-106 58.5t-74 29q-35 0 -55 -22t-33 -68z" />
<glyph unicode="&#xf2;" horiz-adv-x="1159" d="M49 457q0 212 153.5 350.5t385.5 138.5q225 0 373.5 -135.5t148.5 -343.5q0 -141 -68.5 -256.5t-188 -180.5t-265.5 -65q-230 0 -384.5 140.5t-154.5 351.5zM178 1266l119 194l428 -321l-63 -95zM373 459q0 -161 55.5 -244.5t159.5 -83.5q95 0 147.5 85.5t52.5 244.5 q0 315 -202 315q-104 0 -158.5 -79.5t-54.5 -237.5z" />
<glyph unicode="&#xf3;" horiz-adv-x="1159" d="M49 457q0 212 153.5 350.5t385.5 138.5q225 0 373.5 -135.5t148.5 -343.5q0 -141 -68.5 -256.5t-188 -180.5t-265.5 -65q-230 0 -384.5 140.5t-154.5 351.5zM373 459q0 -161 55.5 -244.5t159.5 -83.5q95 0 147.5 85.5t52.5 244.5q0 315 -202 315q-104 0 -158.5 -79.5 t-54.5 -237.5zM420 1139l428 321l121 -194l-486 -222z" />
<glyph unicode="&#xf4;" horiz-adv-x="1159" d="M49 457q0 212 153.5 350.5t385.5 138.5q225 0 373.5 -135.5t148.5 -343.5q0 -141 -68.5 -256.5t-188 -180.5t-265.5 -65q-230 0 -384.5 140.5t-154.5 351.5zM268 1108l285 317h49l287 -317l-68 -68l-243 162l-244 -162zM373 459q0 -161 55.5 -244.5t159.5 -83.5 q95 0 147.5 85.5t52.5 244.5q0 315 -202 315q-104 0 -158.5 -79.5t-54.5 -237.5z" />
<glyph unicode="&#xf5;" horiz-adv-x="1159" d="M49 457q0 212 153.5 350.5t385.5 138.5q225 0 373.5 -135.5t148.5 -343.5q0 -141 -68.5 -256.5t-188 -180.5t-265.5 -65q-230 0 -384.5 140.5t-154.5 351.5zM217 1135q35 137 83.5 189t137.5 52q45 0 102 -29t105.5 -58t73.5 -29q14 0 25.5 6.5t18 13t13.5 24.5t9.5 27 t9.5 35l151 -43q-36 -137 -85.5 -189.5t-137.5 -52.5q-44 0 -101 29.5t-106 58.5t-74 29q-35 0 -55 -22t-33 -68zM373 459q0 -161 55.5 -244.5t159.5 -83.5q95 0 147.5 85.5t52.5 244.5q0 315 -202 315q-104 0 -158.5 -79.5t-54.5 -237.5z" />
<glyph unicode="&#xf6;" horiz-adv-x="1159" d="M49 457q0 212 153.5 350.5t385.5 138.5q225 0 373.5 -135.5t148.5 -343.5q0 -141 -68.5 -256.5t-188 -180.5t-265.5 -65q-230 0 -384.5 140.5t-154.5 351.5zM221 1212q0 57 42.5 100.5t98.5 43.5t99 -43.5t43 -100.5q0 -55 -43 -98t-99 -43t-98.5 42.5t-42.5 98.5z M373 459q0 -161 55.5 -244.5t159.5 -83.5q95 0 147.5 85.5t52.5 244.5q0 315 -202 315q-104 0 -158.5 -79.5t-54.5 -237.5zM655 1212q0 57 43 100.5t99 43.5q57 0 100 -43.5t43 -100.5q0 -56 -43 -98.5t-100 -42.5q-56 0 -99 43t-43 98z" />
<glyph unicode="&#xf7;" horiz-adv-x="1105" d="M113 344v188h880v-188h-880zM418 123q0 51 42 94t93 43q52 0 94.5 -43t42.5 -94q0 -53 -42 -95t-95 -42q-51 0 -93 42.5t-42 94.5zM418 758q0 51 42 94t93 43q52 0 94.5 -43t42.5 -94q0 -52 -42 -93.5t-95 -41.5q-51 0 -93 41.5t-42 93.5z" />
<glyph unicode="&#xf8;" horiz-adv-x="1159" d="M0 -33l168 174q-119 135 -119 316q0 212 153.5 350.5t385.5 138.5q164 0 291 -76l77 80h172l-151 -155q133 -133 133 -328q0 -141 -68.5 -256.5t-188 -180.5t-265.5 -65q-183 0 -326 94l-90 -92h-172zM373 459q0 -57 6 -103l348 359q-52 61 -141 61q-104 0 -158.5 -79.5 t-54.5 -237.5zM422 223q53 -92 166 -92q95 0 147.5 85.5t52.5 244.5q0 67 -10 129z" />
<glyph unicode="&#xf9;" horiz-adv-x="1239" d="M35 735v176h422v-571q0 -164 143 -164q69 0 113.5 48t50.5 134v377h-111v176h420v-700l129 41v-172l-430 -117l-4 180q-96 -178 -295 -178q-157 0 -241.5 100.5t-84.5 303.5v366h-112zM240 1266l118 194l428 -321l-63 -95z" />
<glyph unicode="&#xfa;" horiz-adv-x="1239" d="M35 735v176h422v-571q0 -164 143 -164q69 0 113.5 48t50.5 134v377h-111v176h420v-700l129 41v-172l-430 -117l-4 180q-96 -178 -295 -178q-157 0 -241.5 100.5t-84.5 303.5v366h-112zM436 1139l428 321l121 -194l-485 -222z" />
<glyph unicode="&#xfb;" horiz-adv-x="1239" d="M35 735v176h422v-571q0 -164 143 -164q69 0 113.5 48t50.5 134v377h-111v176h420v-700l129 41v-172l-430 -117l-4 180q-96 -178 -295 -178q-157 0 -241.5 100.5t-84.5 303.5v366h-112zM299 1108l285 317h49l287 -317l-68 -68l-244 162l-243 -162z" />
<glyph unicode="&#xfc;" horiz-adv-x="1239" d="M35 735v176h422v-571q0 -164 143 -164q69 0 113.5 48t50.5 134v377h-111v176h420v-700l129 41v-172l-430 -117l-4 180q-96 -178 -295 -178q-157 0 -241.5 100.5t-84.5 303.5v366h-112zM236 1212q0 57 42.5 100.5t98.5 43.5t98.5 -43.5t42.5 -100.5q0 -56 -43 -98.5 t-98 -42.5t-98 42.5t-43 98.5zM670 1212q0 57 42.5 100.5t98.5 43.5q57 0 100 -43.5t43 -100.5q0 -56 -43 -98.5t-100 -42.5q-55 0 -98 42.5t-43 98.5z" />
<glyph unicode="&#xfd;" horiz-adv-x="1122" d="M16 735v176h531v-176h-113l207 -413l150 413h-107v176h424v-176h-107l-356 -735l-119 -309h105v-178h-494v178h144l192 346l-369 698h-88zM387 1139l428 321l121 -194l-485 -222z" />
<glyph unicode="&#xfe;" horiz-adv-x="1222" d="M12 1352v176l445 43v-780q42 70 117.5 112.5t177.5 42.5q86 0 163 -33t135 -92t92 -148.5t34 -195.5q0 -122 -36.5 -221t-100 -161.5t-146 -96t-176.5 -33.5q-159 0 -260 98v-368h121v-176h-543v176h112v1673zM457 248q25 -44 72 -66t102 -22q101 0 162 80.5t61 214.5 q0 288 -233 288q-50 0 -93 -26t-71 -68v-401z" />
<glyph unicode="&#xff;" horiz-adv-x="1122" d="M16 735v176h531v-176h-113l207 -413l150 413h-107v176h424v-176h-107l-356 -735l-119 -309h105v-178h-494v178h144l192 346l-369 698h-88zM203 1212q0 57 42.5 100.5t98.5 43.5t98.5 -43.5t42.5 -100.5q0 -56 -42.5 -98.5t-98.5 -42.5t-98.5 42.5t-42.5 98.5zM637 1212 q0 57 42.5 100.5t98.5 43.5q57 0 100.5 -43.5t43.5 -100.5q0 -56 -43.5 -98.5t-100.5 -42.5q-56 0 -98.5 42.5t-42.5 98.5z" />
<glyph unicode="&#x152;" horiz-adv-x="2183" d="M82 717q0 341 235 530t646 189h1095v-334h-190v158h-455v-441h221v137h185v-456h-185v137h-221v-461h479l78 195h205l-152 -371h-1052q-428 0 -658.5 186t-230.5 531zM449 719q0 -264 140.5 -403.5t414.5 -139.5h57v1084h-76q-256 0 -396 -143t-140 -398z" />
<glyph unicode="&#x153;" horiz-adv-x="1736" d="M41 457q0 215 144.5 352t371.5 137q212 0 350 -141q135 141 334 141q209 0 327 -130t132 -345h-647v-4q0 -136 79.5 -216.5t213.5 -80.5q50 0 89 11t67 33t46.5 44.5t38.5 56.5h113q-19 -70 -54 -129.5t-89 -110.5t-134.5 -80.5t-179.5 -29.5q-104 0 -193 37.5 t-151 106.5q-138 -144 -342 -144q-224 0 -370 139t-146 353zM367 459q0 -293 204 -293q91 0 143 77t52 222q0 148 -49.5 216.5t-147.5 68.5q-202 0 -202 -291zM1055 606h338v64q0 63 -38.5 98t-105.5 35q-75 0 -129.5 -54.5t-64.5 -142.5z" />
<glyph unicode="&#x178;" horiz-adv-x="1564" d="M31 1260v176h723v-176h-172l288 -418l271 418h-148v176h537v-176h-152l-424 -572v-512h160v-176h-672v176h160v498l-432 586h-139zM453 1737q0 57 42.5 100t98.5 43t98.5 -43t42.5 -100q0 -56 -43 -99t-98 -43t-98 43t-43 99zM887 1737q0 57 42.5 100t98.5 43 q57 0 100 -43t43 -100q0 -56 -43 -99t-100 -43q-55 0 -98 43t-43 99z" />
<glyph unicode="&#x2c6;" horiz-adv-x="1021" d="M201 1108l284 317h50l286 -317l-67 -68l-244 162l-244 -162z" />
<glyph unicode="&#x2dc;" horiz-adv-x="1021" d="M147 1135q35 136 84 188.5t138 52.5q45 0 102 -29t105 -58t73 -29q14 0 25.5 6.5t18 13t13.5 24.5t9.5 27t9.5 35l152 -43q-36 -137 -85.5 -189.5t-138.5 -52.5q-44 0 -101 29.5t-105.5 58.5t-73.5 29q-35 0 -55 -22t-33 -68z" />
<glyph unicode="&#x2000;" horiz-adv-x="992" />
<glyph unicode="&#x2001;" horiz-adv-x="1985" />
<glyph unicode="&#x2002;" horiz-adv-x="992" />
<glyph unicode="&#x2003;" horiz-adv-x="1985" />
<glyph unicode="&#x2004;" horiz-adv-x="661" />
<glyph unicode="&#x2005;" horiz-adv-x="496" />
<glyph unicode="&#x2006;" horiz-adv-x="330" />
<glyph unicode="&#x2007;" horiz-adv-x="330" />
<glyph unicode="&#x2008;" horiz-adv-x="248" />
<glyph unicode="&#x2009;" horiz-adv-x="397" />
<glyph unicode="&#x200a;" horiz-adv-x="110" />
<glyph unicode="&#x2010;" horiz-adv-x="708" d="M63 338v207h582v-207h-582z" />
<glyph unicode="&#x2011;" horiz-adv-x="708" d="M63 338v207h582v-207h-582z" />
<glyph unicode="&#x2012;" horiz-adv-x="708" d="M63 338v207h582v-207h-582z" />
<glyph unicode="&#x2013;" horiz-adv-x="1218" d="M94 354v172h1030v-172h-1030z" />
<glyph unicode="&#x2014;" horiz-adv-x="1732" d="M94 354v172h1544v-172h-1544z" />
<glyph unicode="&#x2018;" horiz-adv-x="516" d="M66 1063q0 78 83.5 188.5t178.5 192.5l159 -10q-146 -200 -194 -306q61 -43 104 -86.5t43 -68.5q0 -38 -47.5 -100t-105.5 -62q-66 0 -143.5 79.5t-77.5 172.5z" />
<glyph unicode="&#x2019;" horiz-adv-x="516" d="M29 846q79 111 122 177.5t72 129.5q-61 42 -104 86.5t-43 69.5q0 37 48 98t105 61q67 0 144.5 -78t77.5 -171q0 -78 -84 -188.5t-179 -192.5z" />
<glyph unicode="&#x201a;" horiz-adv-x="516" d="M29 -309q147 202 194 305q-60 42 -103.5 87t-43.5 69q0 38 47.5 99.5t105.5 61.5q66 0 144 -78.5t78 -171.5q0 -79 -83.5 -189t-179.5 -193z" />
<glyph unicode="&#x201c;" horiz-adv-x="946" d="M55 1067q0 78 83 186t179 191l160 -10q-80 -110 -123 -175t-71 -126q59 -40 103 -85.5t44 -70.5q0 -37 -48.5 -98.5t-105.5 -61.5q-66 0 -143.5 78.5t-77.5 171.5zM508 1063q0 78 83.5 188.5t178.5 192.5l160 -10q-79 -108 -122.5 -175.5t-72.5 -130.5q62 -43 105 -86.5 t43 -68.5q0 -38 -48 -100t-106 -62q-66 0 -143.5 79.5t-77.5 172.5z" />
<glyph unicode="&#x201d;" horiz-adv-x="946" d="M16 846q151 210 195 307q-61 43 -104.5 87t-43.5 69q0 37 48.5 98t105.5 61q66 0 143.5 -78t77.5 -171q0 -78 -83.5 -188.5t-178.5 -192.5zM469 852q152 208 195 301q-61 43 -104.5 87t-43.5 69q0 37 48.5 98t105.5 61q66 0 143.5 -78t77.5 -171q0 -78 -83.5 -186.5 t-178.5 -188.5z" />
<glyph unicode="&#x201e;" horiz-adv-x="976" d="M16 -309q150 205 195 305q-60 42 -104 87t-44 69q0 38 48 99.5t106 61.5q66 0 143.5 -78.5t77.5 -171.5q0 -79 -83.5 -189.5t-178.5 -192.5zM469 -305q152 208 195 301q-60 42 -104 87t-44 69q0 38 48 99.5t106 61.5q66 0 143.5 -78.5t77.5 -171.5q0 -79 -83 -187 t-179 -189z" />
<glyph unicode="&#x2022;" horiz-adv-x="1026" d="M211 432q0 129 89 219t216 90q126 0 212.5 -87t86.5 -214q0 -129 -87 -219t-210 -90q-127 0 -217 88t-90 213z" />
<glyph unicode="&#x2026;" horiz-adv-x="1423" d="M66 137q0 67 52 119.5t120 52.5t120 -52.5t52 -119.5q0 -69 -51.5 -120.5t-120.5 -51.5q-68 0 -120 52.5t-52 119.5zM541 137q0 67 52 119.5t118 52.5q67 0 119.5 -52.5t52.5 -119.5q0 -69 -51.5 -120.5t-120.5 -51.5q-66 0 -118 52.5t-52 119.5zM1014 137q0 67 52 119.5 t120 52.5t120 -52.5t52 -119.5q0 -69 -51.5 -120.5t-120.5 -51.5q-68 0 -120 52.5t-52 119.5z" />
<glyph unicode="&#x202f;" horiz-adv-x="397" />
<glyph unicode="&#x2039;" horiz-adv-x="778" d="M106 412v59l414 350l111 -112l-240 -269l240 -266l-111 -113z" />
<glyph unicode="&#x203a;" horiz-adv-x="778" d="M147 174l242 266l-242 269l113 112l414 -350v-59l-414 -351z" />
<glyph unicode="&#x205f;" horiz-adv-x="496" />
<glyph unicode="&#x20ac;" horiz-adv-x="1540" d="M61 416v151h162q-6 55 -6 115q0 41 2 61h-158v152h181q59 237 243 370.5t453 133.5q214 0 387 -70l156 -338h-170q-29 53 -55.5 88t-65.5 66t-91.5 46t-121.5 15q-148 0 -248.5 -80.5t-140.5 -230.5h436v-152h-461q-2 -20 -2 -61q0 -60 6 -115h457v-151h-418 q47 -124 142.5 -191t224.5 -67q60 0 110.5 13t86.5 34t66.5 52.5t50 63t36.5 70.5h168l-143 -330q-174 -96 -428 -96q-252 0 -425 117.5t-241 333.5h-193z" />
<glyph unicode="&#x2122;" horiz-adv-x="1468" d="M10 1276l51 192h91l-11 -36h389v36h80v-192h-80v76h-137v-414h64v-76h-275v76h64v414h-125l-25 -76h-86zM651 862v76h64l41 422h-62v76h273l100 -273l98 273h254v-76h-63l37 -422h61v-76h-270v76h61l-28 385l-168 -424h-35l-162 424h-2l-35 -385h64v-76h-228z" />
<glyph unicode="&#x25fc;" horiz-adv-x="911" d="M0 0v911h911v-911h-911z" />
</font>
</defs>
</svg>
