<?xml version="1.0" encoding="utf-8"?>
<!-- Generator: Adobe Illustrator 15.0.2, SVG Export Plug-In . SVG Version: 6.00 Build 0)  -->
<!DOCTYPE svg PUBLIC "-//W3C//DTD SVG 1.1//EN" "http://www.w3.org/Graphics/SVG/1.1/DTD/svg11.dtd">
<svg version="1.1" id="Layer_1" xmlns="http://www.w3.org/2000/svg" xmlns:xlink="http://www.w3.org/1999/xlink" x="0px" y="0px"
	 width="300px" height="100px" viewBox="0 0 300 100" enable-background="new 0 0 300 100" xml:space="preserve">
<path fill="#1A3F43" d="M294.752,36.905c-3.665,4.039-9.121,3.183-13.679,5.296c-4.138,1.918-6.793,5.834-10.23,8.688
	c-0.788,0.655-1.622,1.262-2.448,1.893c-1.982-2.602-5.033-4.103-9.285-3.182c-2.697,0.585-4.957,2.833-5.133,4.78
	c-0.39,4.271,4.211,7.764,7.672,7.741c1.897-0.013,3.756-0.418,5.558-1.072c0.339,8.272-9.548,19.933-16.966,19.935
	c-11.5,0-6.402-18.978-1.76-31.547c0.858-0.103,1.695-0.227,2.482-0.39c5.053-1.042,8.66-3.072,12.864-6.056
	c10.886-7.729,16.866-31.089,1.942-31.089c-11.865,0-20.334,16.395-25.271,29.044c-1.496-1.221-2.99-2.567-4.558-3.062
	c-6.264-1.981-8.975,7.032-3.18,9.652c1.467,0.663,3.11,1.146,4.827,1.496c-0.124,0.371-0.243,0.731-0.356,1.076
	c-2.59,7.875-6.182,18.201-4.945,27.13c-1.938,2.074-4.344,3.871-6.878,3.871c-8.267,0-0.556-12.084,1.077-15.153
	c1.896-3.562,3.009-6.326,1.586-10.28c-1.629-4.525-6.321-4.935-8.332-8.699c-0.496-0.93-0.174-1.76-0.965-2.453
	c-0.877-0.769-2.44-0.986-3.551-0.986c-3.125,0-18.438,4.578-23.359,24.644c-0.809,3.291-1.176,6.092-1.227,8.489
	c-2.594,1.985-6.19,4.315-8.808,4.315c-3.519,0-2.867-8.055-2.867-8.058c1.338-16.549,6.948-35.018,17.151-48.478
	c2.392-3.155,4.632-4.755,7.087-3.952c4.243,1.388,13.021,10.065,17.394,4.594c1.523-1.907,0.784-5.463-2.07-5.463
	c-3.349,0-3.465,3.346-3.719,3.236c-5.048-2.167-5.107-9.28-11.07-10.752C182.7,6.917,168.73,58.255,167.759,72.926
	c0,0.001-0.034,0.545-0.041,1.428c-4.346,3.545-10.722,7.765-16.467,7.765c-4.228,0-9.732-2.302-8.952-11.701
	c10.26-0.586,23.676-7.392,23.676-17.44c0-5.068-3.549-9.125-11.404-9.125c-7.263,0-15.906,8.341-20.121,19.055
	c-0.265-0.179-0.521-0.363-0.752-0.567c-1.543-1.359-2.625-3.863-2.125-5.951c0.458-1.904,2.367-4.231,2.277-6.42
	c-0.204-4.897-9.07-6.721-12.735-6.721c-10.771,0-15.567,7.536-15.505,13.682c0.043,4.277,3.281,8.717,6.515,11.727
	c4.69,4.363,4.734,7.297,4.039,9.49c-0.694,2.192-3.474,5.492-8.404,5.492c-6.587,0-6.71-4.625-6.71-4.625S106,79.825,106,74.65
	c0-2.364-1.388-4.401-4.624-4.401c-2.235,0-4.336,1.387-5.421,3.685l-0.003-0.019c0,0-7.545,7.071-12.102,7.071
	c-2.891,0-2.966-5.434-2.901-7.373c1.827-1.17,3.57-2.627,5.333-4.153c8.449-7.321,14.351-17.039,18.979-27.183
	c2.932-6.424,8.037-19.379,5.014-26.677c-1.433-3.459-5.314-4.475-8.893-3.894c-5.222,0.848-8.765,4.323-12.075,8.181
	c-8.468,9.867-13.358,23.854-16.395,36.347c-1.333,5.481-2.76,11.048-3.134,16.695c0,0.002-0.053,0.809-0.04,2.072
	c-5.642,4.148-16.044,10.68-25.647,10.68c-10.339,0-17.398-9.279-17.398-18.371c0-7.75,5.041-13.744,10.852-17.386
	c4.278,4.32,9.877,6.665,14.301,6.665c8.329,0,10.771-4.936,10.771-7.143c0-4.512-4.728-8.311-13.787-8.311
	c-1.686,0-3.381,0.125-5.067,0.357c-0.337-1.67-0.533-3.519-0.533-5.552c0-9.567,6.605-18.832,15.51-18.832
	c8.904,0,10.482,5.844,10.482,5.844s-6.605-0.142-6.605,5.455c0,2.468,2.154,5.065,6.032,5.065s7.755-3.96,7.755-8.961
	c0-5-5.099-15.714-19.1-15.714s-26.28,11.168-26.28,25.324c0,3.035,0.578,5.799,1.562,8.272c-4.077-0.297-7.962-1.081-11.756-3.053
	c-1.601-0.832-8.236-6.063-10.96-5.873c-2.303,0.161-2.89,2.158-4.622,3.167c-2.283,9.768,11.672,11.196,22.01,11.146
	c-7.819,5.285-13.345,13.417-13.345,23.292c0,14.155,11.989,24.604,24.723,24.604c13.78,0,25.812-9.378,31.623-14.806
	c0.839,4.711,2.976,9.77,8.285,9.77c7.581,0,14.093-7.437,16.801-11.035c0.834,5.861,5.291,10.871,14.826,10.871
	c9.989,0,17.068-7.471,17.068-14.918c0-4.336-2.371-7.904-5.146-11.033c-2.506-2.822-6.319-5.6-6.319-9.75
	c0-3.385,2.734-6.057,6.059-6.058c1.755,0,3.745,0.523,4.881,1.956c-1.958,2.789-1.799,6.281-0.41,9.309
	c1.325,2.887,4.03,5.277,6.887,6.666c-0.772,2.762-1.238,5.623-1.301,8.502c-0.207,9.502,5.195,15.459,14.065,15.459
	c10.22,0,17.72-5.645,22.186-10.325c0.766,4.866,2.853,10.356,8.383,10.356c6.024,0,11.373-4.697,14.677-8.434
	c1.847,7.169,7.604,8.189,9.104,8.189c8.516,0,11.504-3.989,11.504-3.989s2.336,4.05,6.611,4.05c6.518,0,11.775-3.964,15.352-7.811
	c0.854,1.981,2.058,3.838,3.709,5.506c1.666,1.683,4.397,2.486,6.736,2.486c14.449,0,29.988-16.615,26.857-31.232
	c-0.01-0.045-0.021-0.092-0.03-0.137c2.817-1.571,5.449-3.568,7.808-5.404c3.403-2.646,7.496-2.356,11.065-4.815
	C293.15,46.824,295.85,41.036,294.752,36.905z M49.55,45.938c5.663,0,6.318,2.338,6.318,3.117c0,0.778-1.201,2.207-3.878,2.207
	c-2.516,0-4.872-1.703-6.507-4.775C46.94,46.126,48.321,45.938,49.55,45.938z M98.138,24.447c1.082-1.428,2.857-3.344,4.333-3.344
	c3.246,10.202-6.284,27.16-12.183,35.783c-2.589,3.785-5.727,7.064-8.61,9.839C83.778,51.895,89.192,36.247,98.138,24.447z
	 M155.161,52.214c1.394,0,2.362,0.382,2.362,2.281c0,1.704-3.291,9.71-14.276,11.356C145.564,58.675,151.407,52.214,155.161,52.214z
	 M216.814,57.979c-0.072,0.646-0.473,1.213-0.682,1.821c-0.52,1.509-0.938,3.062-1.449,4.579c-1.108,3.295-2.141,6.619-3.223,9.926
	c-0.408,1.25-0.777,2.45-0.947,3.772c-0.058,0.444,0.127,1.356-0.018,1.718c-0.021,0.053-0.857,2.082-4.887,2.082
	c-4.299,0-5.449-9.466-0.934-20.411c1.249-3.026,3.02-5.751,5.67-7.723c2.426-1.804,4.864-1.632,5.702,1.584
	c0.181,0.69,0.604,1.301,0.736,1.998C216.825,57.533,216.84,57.749,216.814,57.979z M263.072,22.695
	c0.67-0.382,1.26-0.587,1.962-0.267c-0.292,8.288-5.907,19.048-14.209,21.039c0.832-2,1.51-3.521,1.868-4.306
	C254.711,34.75,258.448,25.331,263.072,22.695z M259.287,55.796c-2.389-1.769,0.16-2.639,2.181-1.965
	c1.298,0.433,2.345,1.017,3.175,1.717C262.914,56.348,260.62,56.784,259.287,55.796z"/>
</svg>